<?xml version="1.0" encoding="UTF-8" standalone="no"?><svg xmlns="http://www.w3.org/2000/svg" xmlns:xlink="http://www.w3.org/1999/xlink" contentStyleType="text/css" height="358px" preserveAspectRatio="none" style="width:2649px;height:358px;background:#FFFFFF;" version="1.1" viewBox="0 0 2649 358" width="2649px" zoomAndPan="magnify"><defs/><g><rect fill="#F1F1F1" height="81.9531" rx="5" ry="5" style="stroke:#F1F1F1;stroke-width:1.5;" width="225" x="10" y="158"/><text fill="#000000" font-family="sans-serif" font-size="14" font-weight="bold" lengthAdjust="spacing" textLength="96" x="15" y="173.5352">resourceType</text><text fill="#000000" font-family="sans-serif" font-size="14" lengthAdjust="spacing" textLength="47" x="121" y="173.5352">Bundle</text><line style="stroke:#000000;stroke-width:1.0;" x1="116" x2="116" y1="158" y2="178.4883"/><line style="stroke:#000000;stroke-width:1.0;" x1="10" x2="235" y1="178.4883" y2="178.4883"/><text fill="#000000" font-family="sans-serif" font-size="14" font-weight="bold" lengthAdjust="spacing" textLength="14" x="15" y="194.0234">id</text><text fill="#000000" font-family="sans-serif" font-size="14" lengthAdjust="spacing" textLength="109" x="121" y="194.0234">LabCancellation</text><line style="stroke:#000000;stroke-width:1.0;" x1="116" x2="116" y1="178.4883" y2="198.9766"/><line style="stroke:#000000;stroke-width:1.0;" x1="10" x2="235" y1="198.9766" y2="198.9766"/><text fill="#000000" font-family="sans-serif" font-size="14" font-weight="bold" lengthAdjust="spacing" textLength="31" x="15" y="214.5117">type</text><text fill="#000000" font-family="sans-serif" font-size="14" lengthAdjust="spacing" textLength="77" x="121" y="214.5117">transaction</text><line style="stroke:#000000;stroke-width:1.0;" x1="116" x2="116" y1="198.9766" y2="219.4648"/><line style="stroke:#000000;stroke-width:1.0;" x1="10" x2="235" y1="219.4648" y2="219.4648"/><text fill="#000000" font-family="sans-serif" font-size="14" font-weight="bold" lengthAdjust="spacing" textLength="37" x="15" y="235">entry</text><text fill="#000000" font-family="sans-serif" font-size="14" lengthAdjust="spacing" textLength="12" x="121" y="235">   </text><line style="stroke:#000000;stroke-width:1.0;" x1="116" x2="116" y1="219.4648" y2="239.9531"/><rect fill="none" height="81.9531" rx="5" ry="5" style="stroke:#000000;stroke-width:1.5;" width="225" x="10" y="158"/><rect fill="#F1F1F1" height="20.4883" rx="5" ry="5" style="stroke:#F1F1F1;stroke-width:1.5;" width="22" x="272" y="220"/><text fill="#000000" font-family="sans-serif" font-size="14" lengthAdjust="spacing" textLength="12" x="277" y="235.5352">   </text><rect fill="none" height="20.4883" rx="5" ry="5" style="stroke:#000000;stroke-width:1.5;" width="22" x="272" y="220"/><rect fill="#F1F1F1" height="61.4648" rx="5" ry="5" style="stroke:#F1F1F1;stroke-width:1.5;" width="383" x="333" y="199.5"/><text fill="#000000" font-family="sans-serif" font-size="14" font-weight="bold" lengthAdjust="spacing" textLength="46" x="338" y="215.0352">fullUrl</text><text fill="#000000" font-family="sans-serif" font-size="14" lengthAdjust="spacing" textLength="302" x="409" y="215.0352">Task/HIVLabOrderCancellationTaskExample</text><line style="stroke:#000000;stroke-width:1.0;" x1="404" x2="404" y1="199.5" y2="219.9883"/><line style="stroke:#000000;stroke-width:1.0;" x1="333" x2="716" y1="219.9883" y2="219.9883"/><text fill="#000000" font-family="sans-serif" font-size="14" font-weight="bold" lengthAdjust="spacing" textLength="61" x="338" y="235.5234">resource</text><text fill="#000000" font-family="sans-serif" font-size="14" lengthAdjust="spacing" textLength="12" x="409" y="235.5234">   </text><line style="stroke:#000000;stroke-width:1.0;" x1="404" x2="404" y1="219.9883" y2="240.4766"/><line style="stroke:#000000;stroke-width:1.0;" x1="333" x2="716" y1="240.4766" y2="240.4766"/><text fill="#000000" font-family="sans-serif" font-size="14" font-weight="bold" lengthAdjust="spacing" textLength="54" x="338" y="256.0117">request</text><text fill="#000000" font-family="sans-serif" font-size="14" lengthAdjust="spacing" textLength="12" x="409" y="256.0117">   </text><line style="stroke:#000000;stroke-width:1.0;" x1="404" x2="404" y1="240.4766" y2="260.9648"/><rect fill="none" height="61.4648" rx="5" ry="5" style="stroke:#000000;stroke-width:1.5;" width="383" x="333" y="199.5"/><rect fill="#F1F1F1" height="266.3477" rx="5" ry="5" style="stroke:#F1F1F1;stroke-width:1.5;" width="398" x="753" y="21"/><text fill="#000000" font-family="sans-serif" font-size="14" font-weight="bold" lengthAdjust="spacing" textLength="96" x="758" y="36.5352">resourceType</text><text fill="#000000" font-family="sans-serif" font-size="14" lengthAdjust="spacing" textLength="32" x="883" y="36.5352">Task</text><line style="stroke:#000000;stroke-width:1.0;" x1="878" x2="878" y1="21" y2="41.4883"/><line style="stroke:#000000;stroke-width:1.0;" x1="753" x2="1151" y1="41.4883" y2="41.4883"/><text fill="#000000" font-family="sans-serif" font-size="14" font-weight="bold" lengthAdjust="spacing" textLength="14" x="758" y="57.0234">id</text><text fill="#000000" font-family="sans-serif" font-size="14" lengthAdjust="spacing" textLength="263" x="883" y="57.0234">HIVLabOrderCancellationTaskExample</text><line style="stroke:#000000;stroke-width:1.0;" x1="878" x2="878" y1="41.4883" y2="61.9766"/><line style="stroke:#000000;stroke-width:1.0;" x1="753" x2="1151" y1="61.9766" y2="61.9766"/><text fill="#000000" font-family="sans-serif" font-size="14" font-weight="bold" lengthAdjust="spacing" textLength="36" x="758" y="77.5117">meta</text><text fill="#000000" font-family="sans-serif" font-size="14" lengthAdjust="spacing" textLength="12" x="883" y="77.5117">   </text><line style="stroke:#000000;stroke-width:1.0;" x1="878" x2="878" y1="61.9766" y2="82.4648"/><line style="stroke:#000000;stroke-width:1.0;" x1="753" x2="1151" y1="82.4648" y2="82.4648"/><text fill="#000000" font-family="sans-serif" font-size="14" font-weight="bold" lengthAdjust="spacing" textLength="67" x="758" y="98">identifier</text><text fill="#000000" font-family="sans-serif" font-size="14" lengthAdjust="spacing" textLength="12" x="883" y="98">   </text><line style="stroke:#000000;stroke-width:1.0;" x1="878" x2="878" y1="82.4648" y2="102.9531"/><line style="stroke:#000000;stroke-width:1.0;" x1="753" x2="1151" y1="102.9531" y2="102.9531"/><text fill="#000000" font-family="sans-serif" font-size="14" font-weight="bold" lengthAdjust="spacing" textLength="63" x="758" y="118.4883">basedOn</text><text fill="#000000" font-family="sans-serif" font-size="14" lengthAdjust="spacing" textLength="12" x="883" y="118.4883">   </text><line style="stroke:#000000;stroke-width:1.0;" x1="878" x2="878" y1="102.9531" y2="123.4414"/><line style="stroke:#000000;stroke-width:1.0;" x1="753" x2="1151" y1="123.4414" y2="123.4414"/><text fill="#000000" font-family="sans-serif" font-size="14" font-weight="bold" lengthAdjust="spacing" textLength="45" x="758" y="138.9766">status</text><text fill="#000000" font-family="sans-serif" font-size="14" lengthAdjust="spacing" textLength="64" x="883" y="138.9766">cancelled</text><line style="stroke:#000000;stroke-width:1.0;" x1="878" x2="878" y1="123.4414" y2="143.9297"/><line style="stroke:#000000;stroke-width:1.0;" x1="753" x2="1151" y1="143.9297" y2="143.9297"/><text fill="#000000" font-family="sans-serif" font-size="14" font-weight="bold" lengthAdjust="spacing" textLength="97" x="758" y="159.4648">statusReason</text><text fill="#000000" font-family="sans-serif" font-size="14" lengthAdjust="spacing" textLength="12" x="883" y="159.4648">   </text><line style="stroke:#000000;stroke-width:1.0;" x1="878" x2="878" y1="143.9297" y2="164.418"/><line style="stroke:#000000;stroke-width:1.0;" x1="753" x2="1151" y1="164.418" y2="164.418"/><text fill="#000000" font-family="sans-serif" font-size="14" font-weight="bold" lengthAdjust="spacing" textLength="43" x="758" y="179.9531">intent</text><text fill="#000000" font-family="sans-serif" font-size="14" lengthAdjust="spacing" textLength="38" x="883" y="179.9531">order</text><line style="stroke:#000000;stroke-width:1.0;" x1="878" x2="878" y1="164.418" y2="184.9063"/><line style="stroke:#000000;stroke-width:1.0;" x1="753" x2="1151" y1="184.9063" y2="184.9063"/><text fill="#000000" font-family="sans-serif" font-size="14" font-weight="bold" lengthAdjust="spacing" textLength="115" x="758" y="200.4414">executionPeriod</text><text fill="#000000" font-family="sans-serif" font-size="14" lengthAdjust="spacing" textLength="12" x="883" y="200.4414">   </text><line style="stroke:#000000;stroke-width:1.0;" x1="878" x2="878" y1="184.9063" y2="205.3945"/><line style="stroke:#000000;stroke-width:1.0;" x1="753" x2="1151" y1="205.3945" y2="205.3945"/><text fill="#000000" font-family="sans-serif" font-size="14" font-weight="bold" lengthAdjust="spacing" textLength="91" x="758" y="220.9297">lastModified</text><text fill="#000000" font-family="sans-serif" font-size="14" lengthAdjust="spacing" textLength="88" x="883" y="220.9297">2022-07-30</text><line style="stroke:#000000;stroke-width:1.0;" x1="878" x2="878" y1="205.3945" y2="225.8828"/><line style="stroke:#000000;stroke-width:1.0;" x1="753" x2="1151" y1="225.8828" y2="225.8828"/><text fill="#000000" font-family="sans-serif" font-size="14" font-weight="bold" lengthAdjust="spacing" textLength="68" x="758" y="241.418">requester</text><text fill="#000000" font-family="sans-serif" font-size="14" lengthAdjust="spacing" textLength="12" x="883" y="241.418">   </text><line style="stroke:#000000;stroke-width:1.0;" x1="878" x2="878" y1="225.8828" y2="246.3711"/><line style="stroke:#000000;stroke-width:1.0;" x1="753" x2="1151" y1="246.3711" y2="246.3711"/><text fill="#000000" font-family="sans-serif" font-size="14" font-weight="bold" lengthAdjust="spacing" textLength="44" x="758" y="261.9063">owner</text><text fill="#000000" font-family="sans-serif" font-size="14" lengthAdjust="spacing" textLength="12" x="883" y="261.9063">   </text><line style="stroke:#000000;stroke-width:1.0;" x1="878" x2="878" y1="246.3711" y2="266.8594"/><line style="stroke:#000000;stroke-width:1.0;" x1="753" x2="1151" y1="266.8594" y2="266.8594"/><text fill="#000000" font-family="sans-serif" font-size="14" font-weight="bold" lengthAdjust="spacing" textLength="32" x="758" y="282.3945">note</text><text fill="#000000" font-family="sans-serif" font-size="14" lengthAdjust="spacing" textLength="12" x="883" y="282.3945">   </text><line style="stroke:#000000;stroke-width:1.0;" x1="878" x2="878" y1="266.8594" y2="287.3477"/><rect fill="none" height="266.3477" rx="5" ry="5" style="stroke:#000000;stroke-width:1.5;" width="398" x="753" y="21"/><rect fill="#F1F1F1" height="20.4883" rx="5" ry="5" style="stroke:#F1F1F1;stroke-width:1.5;" width="80" x="1325.5" y="17"/><text fill="#000000" font-family="sans-serif" font-size="14" font-weight="bold" lengthAdjust="spacing" textLength="48" x="1330.5" y="32.5352">profile</text><text fill="#000000" font-family="sans-serif" font-size="14" lengthAdjust="spacing" textLength="12" x="1388.5" y="32.5352">   </text><line style="stroke:#000000;stroke-width:1.0;" x1="1383.5" x2="1383.5" y1="17" y2="37.4883"/><rect fill="none" height="20.4883" rx="5" ry="5" style="stroke:#000000;stroke-width:1.5;" width="80" x="1325.5" y="17"/><rect fill="#F1F1F1" height="20.4883" rx="5" ry="5" style="stroke:#F1F1F1;stroke-width:1.5;" width="580" x="1622.5" y="10"/><text fill="#000000" font-family="sans-serif" font-size="14" lengthAdjust="spacing" textLength="570" x="1627.5" y="25.5352">http://openhie.org/fhir/hiv-program-monitoring/StructureDefinition/hiv-lab-task</text><rect fill="none" height="20.4883" rx="5" ry="5" style="stroke:#000000;stroke-width:1.5;" width="580" x="1622.5" y="10"/><rect fill="#F1F1F1" height="20.4883" rx="5" ry="5" style="stroke:#F1F1F1;stroke-width:1.5;" width="22" x="1353.5" y="60"/><text fill="#000000" font-family="sans-serif" font-size="14" lengthAdjust="spacing" textLength="12" x="1358.5" y="75.5352">   </text><rect fill="none" height="20.4883" rx="5" ry="5" style="stroke:#000000;stroke-width:1.5;" width="22" x="1353.5" y="60"/><rect fill="#F1F1F1" height="40.9766" rx="5" ry="5" style="stroke:#F1F1F1;stroke-width:1.5;" width="665" x="1580" y="48.5"/><text fill="#000000" font-family="sans-serif" font-size="14" font-weight="bold" lengthAdjust="spacing" textLength="52" x="1585" y="64.0352">system</text><text fill="#000000" font-family="sans-serif" font-size="14" lengthAdjust="spacing" textLength="593" x="1647" y="64.0352">http://openhie.org/fhir/hiv-program-monitoring/lab-integration/test-order-number</text><line style="stroke:#000000;stroke-width:1.0;" x1="1642" x2="1642" y1="48.5" y2="68.9883"/><line style="stroke:#000000;stroke-width:1.0;" x1="1580" x2="2245" y1="68.9883" y2="68.9883"/><text fill="#000000" font-family="sans-serif" font-size="14" font-weight="bold" lengthAdjust="spacing" textLength="38" x="1585" y="84.5234">value</text><text fill="#000000" font-family="sans-serif" font-size="14" lengthAdjust="spacing" textLength="92" x="1647" y="84.5234">ORDER12345</text><line style="stroke:#000000;stroke-width:1.0;" x1="1642" x2="1642" y1="68.9883" y2="89.4766"/><rect fill="none" height="40.9766" rx="5" ry="5" style="stroke:#000000;stroke-width:1.5;" width="665" x="1580" y="48.5"/><rect fill="#F1F1F1" height="20.4883" rx="5" ry="5" style="stroke:#F1F1F1;stroke-width:1.5;" width="22" x="1353.5" y="103"/><text fill="#000000" font-family="sans-serif" font-size="14" lengthAdjust="spacing" textLength="12" x="1358.5" y="118.5352">   </text><rect fill="none" height="20.4883" rx="5" ry="5" style="stroke:#000000;stroke-width:1.5;" width="22" x="1353.5" y="103"/><rect fill="#F1F1F1" height="20.4883" rx="5" ry="5" style="stroke:#F1F1F1;stroke-width:1.5;" width="381" x="1722" y="108"/><text fill="#000000" font-family="sans-serif" font-size="14" font-weight="bold" lengthAdjust="spacing" textLength="66" x="1727" y="123.5352">reference</text><text fill="#000000" font-family="sans-serif" font-size="14" lengthAdjust="spacing" textLength="295" x="1803" y="123.5352">ServiceRequest/HIVServiceRequestExample</text><line style="stroke:#000000;stroke-width:1.0;" x1="1798" x2="1798" y1="108" y2="128.4883"/><rect fill="none" height="20.4883" rx="5" ry="5" style="stroke:#000000;stroke-width:1.5;" width="381" x="1722" y="108"/><rect fill="#F1F1F1" height="20.4883" rx="5" ry="5" style="stroke:#F1F1F1;stroke-width:1.5;" width="80" x="1325.5" y="144"/><text fill="#000000" font-family="sans-serif" font-size="14" font-weight="bold" lengthAdjust="spacing" textLength="48" x="1330.5" y="159.5352">coding</text><text fill="#000000" font-family="sans-serif" font-size="14" lengthAdjust="spacing" textLength="12" x="1388.5" y="159.5352">   </text><line style="stroke:#000000;stroke-width:1.0;" x1="1383.5" x2="1383.5" y1="144" y2="164.4883"/><rect fill="none" height="20.4883" rx="5" ry="5" style="stroke:#000000;stroke-width:1.5;" width="80" x="1325.5" y="144"/><rect fill="#F1F1F1" height="20.4883" rx="5" ry="5" style="stroke:#F1F1F1;stroke-width:1.5;" width="22" x="1900.5" y="146"/><text fill="#000000" font-family="sans-serif" font-size="14" lengthAdjust="spacing" textLength="12" x="1905.5" y="161.5352">   </text><rect fill="none" height="20.4883" rx="5" ry="5" style="stroke:#000000;stroke-width:1.5;" width="22" x="1900.5" y="146"/><rect fill="#F1F1F1" height="40.9766" rx="5" ry="5" style="stroke:#F1F1F1;stroke-width:1.5;" width="230" x="2344.5" y="135.5"/><text fill="#000000" font-family="sans-serif" font-size="14" font-weight="bold" lengthAdjust="spacing" textLength="52" x="2349.5" y="151.0352">system</text><text fill="#000000" font-family="sans-serif" font-size="14" lengthAdjust="spacing" textLength="158" x="2411.5" y="151.0352">http://snomed.info/sct</text><line style="stroke:#000000;stroke-width:1.0;" x1="2406.5" x2="2406.5" y1="135.5" y2="155.9883"/><line style="stroke:#000000;stroke-width:1.0;" x1="2344.5" x2="2574.5" y1="155.9883" y2="155.9883"/><text fill="#000000" font-family="sans-serif" font-size="14" font-weight="bold" lengthAdjust="spacing" textLength="33" x="2349.5" y="171.5234">code</text><text fill="#000000" font-family="sans-serif" font-size="14" lengthAdjust="spacing" textLength="81" x="2411.5" y="171.5234">281264009</text><line style="stroke:#000000;stroke-width:1.0;" x1="2406.5" x2="2406.5" y1="155.9883" y2="176.4766"/><rect fill="none" height="40.9766" rx="5" ry="5" style="stroke:#000000;stroke-width:1.5;" width="230" x="2344.5" y="135.5"/><rect fill="#F1F1F1" height="20.4883" rx="5" ry="5" style="stroke:#F1F1F1;stroke-width:1.5;" width="134" x="1298.5" y="184"/><text fill="#000000" font-family="sans-serif" font-size="14" font-weight="bold" lengthAdjust="spacing" textLength="26" x="1303.5" y="199.5352">end</text><text fill="#000000" font-family="sans-serif" font-size="14" lengthAdjust="spacing" textLength="88" x="1339.5" y="199.5352">2022-07-30</text><line style="stroke:#000000;stroke-width:1.0;" x1="1334.5" x2="1334.5" y1="184" y2="204.4883"/><rect fill="none" height="20.4883" rx="5" ry="5" style="stroke:#000000;stroke-width:1.5;" width="134" x="1298.5" y="184"/><rect fill="#F1F1F1" height="20.4883" rx="5" ry="5" style="stroke:#F1F1F1;stroke-width:1.5;" width="355" x="1188" y="222"/><text fill="#000000" font-family="sans-serif" font-size="14" font-weight="bold" lengthAdjust="spacing" textLength="66" x="1193" y="237.5352">reference</text><text fill="#000000" font-family="sans-serif" font-size="14" lengthAdjust="spacing" textLength="269" x="1269" y="237.5352">Organization/HIVOrganizationExample</text><line style="stroke:#000000;stroke-width:1.0;" x1="1264" x2="1264" y1="222" y2="242.4883"/><rect fill="none" height="20.4883" rx="5" ry="5" style="stroke:#000000;stroke-width:1.5;" width="355" x="1188" y="222"/><rect fill="#F1F1F1" height="20.4883" rx="5" ry="5" style="stroke:#F1F1F1;stroke-width:1.5;" width="355" x="1188" y="260"/><text fill="#000000" font-family="sans-serif" font-size="14" font-weight="bold" lengthAdjust="spacing" textLength="66" x="1193" y="275.5352">reference</text><text fill="#000000" font-family="sans-serif" font-size="14" lengthAdjust="spacing" textLength="269" x="1269" y="275.5352">Organization/HIVOrganizationExample</text><line style="stroke:#000000;stroke-width:1.0;" x1="1264" x2="1264" y1="260" y2="280.4883"/><rect fill="none" height="20.4883" rx="5" ry="5" style="stroke:#000000;stroke-width:1.5;" width="355" x="1188" y="260"/><rect fill="#F1F1F1" height="20.4883" rx="5" ry="5" style="stroke:#F1F1F1;stroke-width:1.5;" width="22" x="1353.5" y="298"/><text fill="#000000" font-family="sans-serif" font-size="14" lengthAdjust="spacing" textLength="12" x="1358.5" y="313.5352">   </text><rect fill="none" height="20.4883" rx="5" ry="5" style="stroke:#000000;stroke-width:1.5;" width="22" x="1353.5" y="298"/><rect fill="#F1F1F1" height="61.4648" rx="5" ry="5" style="stroke:#F1F1F1;stroke-width:1.5;" width="344" x="1740.5" y="277.5"/><text fill="#000000" font-family="sans-serif" font-size="14" font-weight="bold" lengthAdjust="spacing" textLength="117" x="1745.5" y="293.0352">authorReference</text><text fill="#000000" font-family="sans-serif" font-size="14" lengthAdjust="spacing" textLength="12" x="1872.5" y="293.0352">   </text><line style="stroke:#000000;stroke-width:1.0;" x1="1867.5" x2="1867.5" y1="277.5" y2="297.9883"/><line style="stroke:#000000;stroke-width:1.0;" x1="1740.5" x2="2084.5" y1="297.9883" y2="297.9883"/><text fill="#000000" font-family="sans-serif" font-size="14" font-weight="bold" lengthAdjust="spacing" textLength="33" x="1745.5" y="313.5234">time</text><text fill="#000000" font-family="sans-serif" font-size="14" lengthAdjust="spacing" textLength="207" x="1872.5" y="313.5234">2015-02-07T13:28:17-05:00</text><line style="stroke:#000000;stroke-width:1.0;" x1="1867.5" x2="1867.5" y1="297.9883" y2="318.4766"/><line style="stroke:#000000;stroke-width:1.0;" x1="1740.5" x2="2084.5" y1="318.4766" y2="318.4766"/><text fill="#000000" font-family="sans-serif" font-size="14" font-weight="bold" lengthAdjust="spacing" textLength="28" x="1745.5" y="334.0117">text</text><text fill="#000000" font-family="sans-serif" font-size="14" lengthAdjust="spacing" textLength="146" x="1872.5" y="334.0117">additional notes here</text><line style="stroke:#000000;stroke-width:1.0;" x1="1867.5" x2="1867.5" y1="318.4766" y2="338.9648"/><rect fill="none" height="61.4648" rx="5" ry="5" style="stroke:#000000;stroke-width:1.5;" width="344" x="1740.5" y="277.5"/><rect fill="#F1F1F1" height="20.4883" rx="5" ry="5" style="stroke:#F1F1F1;stroke-width:1.5;" width="355" x="2282" y="277"/><text fill="#000000" font-family="sans-serif" font-size="14" font-weight="bold" lengthAdjust="spacing" textLength="66" x="2287" y="292.5352">reference</text><text fill="#000000" font-family="sans-serif" font-size="14" lengthAdjust="spacing" textLength="269" x="2363" y="292.5352">Organization/HIVOrganizationExample</text><line style="stroke:#000000;stroke-width:1.0;" x1="2358" x2="2358" y1="277" y2="297.4883"/><rect fill="none" height="20.4883" rx="5" ry="5" style="stroke:#000000;stroke-width:1.5;" width="355" x="2282" y="277"/><rect fill="#F1F1F1" height="40.9766" rx="5" ry="5" style="stroke:#F1F1F1;stroke-width:1.5;" width="377" x="763.5" y="305.5"/><text fill="#000000" font-family="sans-serif" font-size="14" font-weight="bold" lengthAdjust="spacing" textLength="55" x="768.5" y="321.0352">method</text><text fill="#000000" font-family="sans-serif" font-size="14" lengthAdjust="spacing" textLength="27" x="833.5" y="321.0352">PUT</text><line style="stroke:#000000;stroke-width:1.0;" x1="828.5" x2="828.5" y1="305.5" y2="325.9883"/><line style="stroke:#000000;stroke-width:1.0;" x1="763.5" x2="1140.5" y1="325.9883" y2="325.9883"/><text fill="#000000" font-family="sans-serif" font-size="14" font-weight="bold" lengthAdjust="spacing" textLength="20" x="768.5" y="341.5234">url</text><text fill="#000000" font-family="sans-serif" font-size="14" lengthAdjust="spacing" textLength="302" x="833.5" y="341.5234">Task/HIVLabOrderCancellationTaskExample</text><line style="stroke:#000000;stroke-width:1.0;" x1="828.5" x2="828.5" y1="325.9883" y2="346.4766"/><rect fill="none" height="40.9766" rx="5" ry="5" style="stroke:#000000;stroke-width:1.5;" width="377" x="763.5" y="305.5"/><path d="M1394,27 L1407,27 C1474.3315,27 1546.7079,26.3702 1615.0442,25.4883 " fill="none" style="stroke:#000000;stroke-width:1.0;stroke-dasharray:3.0,3.0;"/><path d="M1615.0854,28.6413 L1617.409,25.4574 L1615.003,22.3354 L1622.9267,25.3853 L1615.0854,28.6413 " fill="#000000" style="stroke:#000000;stroke-width:1.0;"/><ellipse cx="1394" cy="27" fill="#000000" rx="3" ry="3" style="stroke:#000000;stroke-width:1.0;"/><path d="M1139,71 L1152,71 C1170.3033,71 1170.6312,56.7739 1188,51 C1230.7203,36.7986 1281.9092,30.986 1318.2236,28.6148 " fill="none" style="stroke:#000000;stroke-width:1.0;stroke-dasharray:3.0,3.0;"/><path d="M1318.4058,31.6207 L1320.478,28.4781 L1318.0413,25.6088 L1325.7385,28.1592 L1318.4058,31.6207 " fill="#000000" style="stroke:#000000;stroke-width:1.0;"/><ellipse cx="1139" cy="71" fill="#000000" rx="3" ry="3" style="stroke:#000000;stroke-width:1.0;"/><path d="M1365.1695,70.0015 L1378.1695,69.9777 C1407.2952,69.9244 1485.136,69.7818 1572.6608,69.6215 " fill="none" style="stroke:#000000;stroke-width:1.0;stroke-dasharray:3.0,3.0;"/><path d="M1572.6664,72.6922 L1574.9638,69.6173 L1572.6552,66.5508 L1580.3375,69.6074 L1572.6664,72.6922 " fill="#000000" style="stroke:#000000;stroke-width:1.0;"/><ellipse cx="1365.1695" cy="70.0015" fill="#000000" rx="3" ry="3" style="stroke:#000000;stroke-width:1.0;"/><path d="M1139,92 L1152,92 C1224.2345,92 1309.5228,79.3261 1346.4359,73.2174 " fill="none" style="stroke:#000000;stroke-width:1.0;stroke-dasharray:3.0,3.0;"/><path d="M1346.9419,76.2248 L1348.6915,72.8379 L1345.9299,70.21 L1353.9545,71.9524 L1346.9419,76.2248 " fill="#000000" style="stroke:#000000;stroke-width:1.0;"/><ellipse cx="1139" cy="92" fill="#000000" rx="3" ry="3" style="stroke:#000000;stroke-width:1.0;"/><path d="M1365.1701,112.9924 L1378.1695,113.1114 C1422.799,113.5201 1581.81,114.9763 1714.7759,116.1939 " fill="none" style="stroke:#000000;stroke-width:1.0;stroke-dasharray:3.0,3.0;"/><path d="M1714.7484,119.1989 L1717.0297,116.2146 L1714.8034,113.1889 L1722.2884,116.2627 L1714.7484,119.1989 " fill="#000000" style="stroke:#000000;stroke-width:1.0;"/><ellipse cx="1365.1701" cy="112.9924" fill="#000000" rx="3" ry="3" style="stroke:#000000;stroke-width:1.0;"/><path d="M1139,112 L1152,112 C1223.853,112 1309.3389,112.5761 1346.3694,112.8538 " fill="none" style="stroke:#000000;stroke-width:1.0;stroke-dasharray:3.0,3.0;"/><path d="M1346.3464,115.8712 L1348.6325,112.871 L1346.3924,109.8363 L1353.913,112.9113 L1346.3464,115.8712 " fill="#000000" style="stroke:#000000;stroke-width:1.0;"/><ellipse cx="1139" cy="112" fill="#000000" rx="3" ry="3" style="stroke:#000000;stroke-width:1.0;"/><path d="M1912.1695,156 L1925.1695,156 C1978.6785,156 2196.6122,156 2336.9423,156 " fill="none" style="stroke:#000000;stroke-width:1.0;stroke-dasharray:3.0,3.0;"/><path d="M2336.9423,159.1497 L2339.3046,156 L2336.9423,152.8503 L2344.8165,156 L2336.9423,159.1497 " fill="#000000" style="stroke:#000000;stroke-width:1.0;"/><ellipse cx="1912.1695" cy="156" fill="#000000" rx="3" ry="3" style="stroke:#000000;stroke-width:1.0;"/><path d="M1394,154 L1407,154 C1597.0169,154 1827.2482,155.4335 1893.4105,155.8733 " fill="none" style="stroke:#000000;stroke-width:1.0;stroke-dasharray:3.0,3.0;"/><path d="M1893.3901,158.9024 L1895.6823,155.8885 L1893.4308,152.8441 L1900.9833,155.924 L1893.3901,158.9024 " fill="#000000" style="stroke:#000000;stroke-width:1.0;"/><ellipse cx="1394" cy="154" fill="#000000" rx="3" ry="3" style="stroke:#000000;stroke-width:1.0;"/><path d="M1139,153 L1152,153 C1209.2114,153 1275.0658,153.3652 1318.2215,153.6542 " fill="none" style="stroke:#000000;stroke-width:1.0;stroke-dasharray:3.0,3.0;"/><path d="M1318.201,156.6627 L1320.4778,153.6696 L1318.2419,150.6458 L1325.7426,153.7054 L1318.201,156.6627 " fill="#000000" style="stroke:#000000;stroke-width:1.0;"/><ellipse cx="1139" cy="153" fill="#000000" rx="3" ry="3" style="stroke:#000000;stroke-width:1.0;"/><path d="M1139,195 L1152,195 C1198.301,195 1250.2628,194.7608 1291.2725,194.5164 " fill="none" style="stroke:#000000;stroke-width:1.0;stroke-dasharray:3.0,3.0;"/><path d="M1291.2908,197.5268 L1293.5304,194.5027 L1291.2543,191.5059 L1298.7987,194.4707 L1291.2908,197.5268 " fill="#000000" style="stroke:#000000;stroke-width:1.0;"/><ellipse cx="1139" cy="195" fill="#000000" rx="3" ry="3" style="stroke:#000000;stroke-width:1.0;"/><path d="M1139,236 L1152,236 C1161.3389,236 1170.9077,235.9611 1180.5702,235.8909 " fill="none" style="stroke:#000000;stroke-width:1.0;stroke-dasharray:3.0,3.0;"/><path d="M1180.5953,238.9976 L1182.9002,235.8721 L1180.5451,232.7843 L1188.3368,235.8281 L1180.5953,238.9976 " fill="#000000" style="stroke:#000000;stroke-width:1.0;"/><ellipse cx="1139" cy="236" fill="#000000" rx="3" ry="3" style="stroke:#000000;stroke-width:1.0;"/><path d="M1139,256 L1152,256 C1182.8328,256 1216.1221,257.4787 1247.0147,259.475 " fill="none" style="stroke:#000000;stroke-width:1.0;stroke-dasharray:3.0,3.0;"/><path d="M1246.8074,262.5948 L1249.3545,259.6304 L1247.2219,256.3552 L1254.8141,259.9931 L1246.8074,262.5948 " fill="#000000" style="stroke:#000000;stroke-width:1.0;"/><ellipse cx="1139" cy="256" fill="#000000" rx="3" ry="3" style="stroke:#000000;stroke-width:1.0;"/><path d="M2073,287 L2086,287 C2147.3246,287 2214.3206,287 2274.4002,287 " fill="none" style="stroke:#000000;stroke-width:1.0;stroke-dasharray:3.0,3.0;"/><path d="M2274.4002,290.0679 L2276.7012,287 L2274.4002,283.9321 L2282.0701,287 L2274.4002,290.0679 " fill="#000000" style="stroke:#000000;stroke-width:1.0;"/><ellipse cx="2073" cy="287" fill="#000000" rx="3" ry="3" style="stroke:#000000;stroke-width:1.0;"/><path d="M1365.1695,308 L1378.1695,308 C1424.8837,308 1596.9153,308 1733.2247,308 " fill="none" style="stroke:#000000;stroke-width:1.0;stroke-dasharray:3.0,3.0;"/><path d="M1733.2247,311.0766 L1735.5322,308 L1733.2247,304.9234 L1740.9163,308 L1733.2247,311.0766 " fill="#000000" style="stroke:#000000;stroke-width:1.0;"/><ellipse cx="1365.1695" cy="308" fill="#000000" rx="3" ry="3" style="stroke:#000000;stroke-width:1.0;"/><path d="M1139,277 L1152,277 C1168.8655,277 1171.5205,285.4126 1188,289 C1244.5514,301.3105 1313.0803,305.7775 1345.8028,307.2888 " fill="none" style="stroke:#000000;stroke-width:1.0;stroke-dasharray:3.0,3.0;"/><path d="M1345.6677,310.441 L1348.167,307.3901 L1345.9379,304.1366 L1353.6833,307.6266 L1345.6677,310.441 " fill="#000000" style="stroke:#000000;stroke-width:1.0;"/><ellipse cx="1139" cy="277" fill="#000000" rx="3" ry="3" style="stroke:#000000;stroke-width:1.0;"/><path d="M704,229 L717,229 C726.4436,229 736.0038,228.4414 745.5901,227.4205 " fill="none" style="stroke:#000000;stroke-width:1.0;stroke-dasharray:3.0,3.0;"/><path d="M745.9565,230.4973 L747.8977,227.1458 L745.2238,224.3438 L753.2821,226.5046 L745.9565,230.4973 " fill="#000000" style="stroke:#000000;stroke-width:1.0;"/><ellipse cx="704" cy="229" fill="#000000" rx="3" ry="3" style="stroke:#000000;stroke-width:1.0;"/><path d="M704,250 L717,250 C742.961,250 730.5793,282.9123 753,296 C756.8566,298.2512 760.8244,300.3523 764.8825,302.3125 " fill="none" style="stroke:#000000;stroke-width:1.0;stroke-dasharray:3.0,3.0;"/><path d="M763.6155,305.077 L766.9559,303.2628 L766.1496,299.548 L771.7938,305.4801 L763.6155,305.077 " fill="#000000" style="stroke:#000000;stroke-width:1.0;"/><ellipse cx="704" cy="250" fill="#000000" rx="3" ry="3" style="stroke:#000000;stroke-width:1.0;"/><path d="M283.7061,230 L296.7061,230 C303.8896,230 313.8825,230 325.7022,230 " fill="none" style="stroke:#000000;stroke-width:1.0;stroke-dasharray:3.0,3.0;"/><path d="M325.7022,233.0347 L327.9782,230 L325.7022,226.9653 L333.2889,230 L325.7022,233.0347 " fill="#000000" style="stroke:#000000;stroke-width:1.0;"/><ellipse cx="283.7061" cy="230" fill="#000000" rx="3" ry="3" style="stroke:#000000;stroke-width:1.0;"/><path d="M223,230 L236,230 C245.374,230 255.7885,230 264.4714,230 " fill="none" style="stroke:#000000;stroke-width:1.0;stroke-dasharray:3.0,3.0;"/><path d="M264.4714,233.0815 L266.7825,230 L264.4714,226.9185 L272.1751,230 L264.4714,233.0815 " fill="#000000" style="stroke:#000000;stroke-width:1.0;"/><ellipse cx="223" cy="230" fill="#000000" rx="3" ry="3" style="stroke:#000000;stroke-width:1.0;"/><!--MD5=[378c64f764dd965ed0cf46aba8d6602a]
@startjson lab-cancellation-bundle
{
  "resourceType" : "Bundle",
  "id" : "LabCancellation",
  "type" : "transaction",
  "entry" : [{
    "fullUrl" : "Task/HIVLabOrderCancellationTaskExample",
    "resource" : {
      "resourceType" : "Task",
      "id" : "HIVLabOrderCancellationTaskExample",
      "meta" : {
        "profile" : ["http://openhie.org/fhir/hiv-program-monitoring/StructureDefinition/hiv-lab-task"]
      },
           "identifier" : [{
        "system" : "http://openhie.org/fhir/hiv-program-monitoring/lab-integration/test-order-number",
        "value" : "ORDER12345"
      }],
      "basedOn" : [{
        "reference" : "ServiceRequest/HIVServiceRequestExample"
      }],
      "status" : "cancelled",
      "statusReason" : {
        "coding" : [{
          "system" : "http://snomed.info/sct",
          "code" : "281264009"
        }]
      },
      "intent" : "order",
      "executionPeriod" : {
        "end" : "2022-07-30"
      },
      "lastModified" : "2022-07-30",
      "requester" : {
        "reference" : "Organization/HIVOrganizationExample"
      },
      "owner" : {
        "reference" : "Organization/HIVOrganizationExample"
      },
      "note" : [{
        "authorReference" : {
          "reference" : "Organization/HIVOrganizationExample"
        },
        "time" : "2015-02-07T13:28:17-05:00",
        "text" : "additional notes here"
      }]
    },
    "request" : {
      "method" : "PUT",
      "url" : "Task/HIVLabOrderCancellationTaskExample"
    }
  }]
}
@endjson

PlantUML version 1.2022.7(Mon Aug 22 19:01:30 SAST 2022)
(GPL source distribution)
Java Runtime: Java(TM) SE Runtime Environment
JVM: Java HotSpot(TM) 64-Bit Server VM
Default Encoding: UTF-8
Language: en
Country: GB
--></g></svg>