<?xml version="1.0" encoding="UTF-8" standalone="no"?><svg xmlns="http://www.w3.org/2000/svg" xmlns:xlink="http://www.w3.org/1999/xlink" contentStyleType="text/css" height="376px" preserveAspectRatio="none" style="width:3020px;height:376px;background:#FFFFFF;" version="1.1" viewBox="0 0 3020 376" width="3020px" zoomAndPan="magnify"><defs/><g><rect fill="#F1F1F1" height="81.9531" rx="5" ry="5" style="stroke:#F1F1F1;stroke-width:1.5;" width="203" x="10" y="176"/><text fill="#000000" font-family="sans-serif" font-size="14" font-weight="bold" lengthAdjust="spacing" textLength="96" x="15" y="191.5352">resourceType</text><text fill="#000000" font-family="sans-serif" font-size="14" lengthAdjust="spacing" textLength="47" x="121" y="191.5352">Bundle</text><line style="stroke:#000000;stroke-width:1.0;" x1="116" x2="116" y1="176" y2="196.4883"/><line style="stroke:#000000;stroke-width:1.0;" x1="10" x2="213" y1="196.4883" y2="196.4883"/><text fill="#000000" font-family="sans-serif" font-size="14" font-weight="bold" lengthAdjust="spacing" textLength="14" x="15" y="212.0234">id</text><text fill="#000000" font-family="sans-serif" font-size="14" lengthAdjust="spacing" textLength="87" x="121" y="212.0234">LabRejection</text><line style="stroke:#000000;stroke-width:1.0;" x1="116" x2="116" y1="196.4883" y2="216.9766"/><line style="stroke:#000000;stroke-width:1.0;" x1="10" x2="213" y1="216.9766" y2="216.9766"/><text fill="#000000" font-family="sans-serif" font-size="14" font-weight="bold" lengthAdjust="spacing" textLength="31" x="15" y="232.5117">type</text><text fill="#000000" font-family="sans-serif" font-size="14" lengthAdjust="spacing" textLength="77" x="121" y="232.5117">transaction</text><line style="stroke:#000000;stroke-width:1.0;" x1="116" x2="116" y1="216.9766" y2="237.4648"/><line style="stroke:#000000;stroke-width:1.0;" x1="10" x2="213" y1="237.4648" y2="237.4648"/><text fill="#000000" font-family="sans-serif" font-size="14" font-weight="bold" lengthAdjust="spacing" textLength="37" x="15" y="253">entry</text><text fill="#000000" font-family="sans-serif" font-size="14" lengthAdjust="spacing" textLength="12" x="121" y="253">   </text><line style="stroke:#000000;stroke-width:1.0;" x1="116" x2="116" y1="237.4648" y2="257.9531"/><rect fill="none" height="81.9531" rx="5" ry="5" style="stroke:#000000;stroke-width:1.5;" width="203" x="10" y="176"/><rect fill="#F1F1F1" height="20.4883" rx="5" ry="5" style="stroke:#F1F1F1;stroke-width:1.5;" width="22" x="250" y="238"/><text fill="#000000" font-family="sans-serif" font-size="14" lengthAdjust="spacing" textLength="12" x="255" y="253.5352">   </text><rect fill="none" height="20.4883" rx="5" ry="5" style="stroke:#000000;stroke-width:1.5;" width="22" x="250" y="238"/><rect fill="#F1F1F1" height="61.4648" rx="5" ry="5" style="stroke:#F1F1F1;stroke-width:1.5;" width="361" x="311" y="217.5"/><text fill="#000000" font-family="sans-serif" font-size="14" font-weight="bold" lengthAdjust="spacing" textLength="46" x="316" y="233.0352">fullUrl</text><text fill="#000000" font-family="sans-serif" font-size="14" lengthAdjust="spacing" textLength="280" x="387" y="233.0352">Task/HIVLabOrderRejectionTaskExample</text><line style="stroke:#000000;stroke-width:1.0;" x1="382" x2="382" y1="217.5" y2="237.9883"/><line style="stroke:#000000;stroke-width:1.0;" x1="311" x2="672" y1="237.9883" y2="237.9883"/><text fill="#000000" font-family="sans-serif" font-size="14" font-weight="bold" lengthAdjust="spacing" textLength="61" x="316" y="253.5234">resource</text><text fill="#000000" font-family="sans-serif" font-size="14" lengthAdjust="spacing" textLength="12" x="387" y="253.5234">   </text><line style="stroke:#000000;stroke-width:1.0;" x1="382" x2="382" y1="237.9883" y2="258.4766"/><line style="stroke:#000000;stroke-width:1.0;" x1="311" x2="672" y1="258.4766" y2="258.4766"/><text fill="#000000" font-family="sans-serif" font-size="14" font-weight="bold" lengthAdjust="spacing" textLength="54" x="316" y="274.0117">request</text><text fill="#000000" font-family="sans-serif" font-size="14" lengthAdjust="spacing" textLength="12" x="387" y="274.0117">   </text><line style="stroke:#000000;stroke-width:1.0;" x1="382" x2="382" y1="258.4766" y2="278.9648"/><rect fill="none" height="61.4648" rx="5" ry="5" style="stroke:#000000;stroke-width:1.5;" width="361" x="311" y="217.5"/><rect fill="#F1F1F1" height="266.3477" rx="5" ry="5" style="stroke:#F1F1F1;stroke-width:1.5;" width="376" x="709" y="39"/><text fill="#000000" font-family="sans-serif" font-size="14" font-weight="bold" lengthAdjust="spacing" textLength="96" x="714" y="54.5352">resourceType</text><text fill="#000000" font-family="sans-serif" font-size="14" lengthAdjust="spacing" textLength="32" x="839" y="54.5352">Task</text><line style="stroke:#000000;stroke-width:1.0;" x1="834" x2="834" y1="39" y2="59.4883"/><line style="stroke:#000000;stroke-width:1.0;" x1="709" x2="1085" y1="59.4883" y2="59.4883"/><text fill="#000000" font-family="sans-serif" font-size="14" font-weight="bold" lengthAdjust="spacing" textLength="14" x="714" y="75.0234">id</text><text fill="#000000" font-family="sans-serif" font-size="14" lengthAdjust="spacing" textLength="241" x="839" y="75.0234">HIVLabOrderRejectionTaskExample</text><line style="stroke:#000000;stroke-width:1.0;" x1="834" x2="834" y1="59.4883" y2="79.9766"/><line style="stroke:#000000;stroke-width:1.0;" x1="709" x2="1085" y1="79.9766" y2="79.9766"/><text fill="#000000" font-family="sans-serif" font-size="14" font-weight="bold" lengthAdjust="spacing" textLength="36" x="714" y="95.5117">meta</text><text fill="#000000" font-family="sans-serif" font-size="14" lengthAdjust="spacing" textLength="12" x="839" y="95.5117">   </text><line style="stroke:#000000;stroke-width:1.0;" x1="834" x2="834" y1="79.9766" y2="100.4648"/><line style="stroke:#000000;stroke-width:1.0;" x1="709" x2="1085" y1="100.4648" y2="100.4648"/><text fill="#000000" font-family="sans-serif" font-size="14" font-weight="bold" lengthAdjust="spacing" textLength="67" x="714" y="116">identifier</text><text fill="#000000" font-family="sans-serif" font-size="14" lengthAdjust="spacing" textLength="12" x="839" y="116">   </text><line style="stroke:#000000;stroke-width:1.0;" x1="834" x2="834" y1="100.4648" y2="120.9531"/><line style="stroke:#000000;stroke-width:1.0;" x1="709" x2="1085" y1="120.9531" y2="120.9531"/><text fill="#000000" font-family="sans-serif" font-size="14" font-weight="bold" lengthAdjust="spacing" textLength="63" x="714" y="136.4883">basedOn</text><text fill="#000000" font-family="sans-serif" font-size="14" lengthAdjust="spacing" textLength="12" x="839" y="136.4883">   </text><line style="stroke:#000000;stroke-width:1.0;" x1="834" x2="834" y1="120.9531" y2="141.4414"/><line style="stroke:#000000;stroke-width:1.0;" x1="709" x2="1085" y1="141.4414" y2="141.4414"/><text fill="#000000" font-family="sans-serif" font-size="14" font-weight="bold" lengthAdjust="spacing" textLength="45" x="714" y="156.9766">status</text><text fill="#000000" font-family="sans-serif" font-size="14" lengthAdjust="spacing" textLength="55" x="839" y="156.9766">rejected</text><line style="stroke:#000000;stroke-width:1.0;" x1="834" x2="834" y1="141.4414" y2="161.9297"/><line style="stroke:#000000;stroke-width:1.0;" x1="709" x2="1085" y1="161.9297" y2="161.9297"/><text fill="#000000" font-family="sans-serif" font-size="14" font-weight="bold" lengthAdjust="spacing" textLength="97" x="714" y="177.4648">statusReason</text><text fill="#000000" font-family="sans-serif" font-size="14" lengthAdjust="spacing" textLength="12" x="839" y="177.4648">   </text><line style="stroke:#000000;stroke-width:1.0;" x1="834" x2="834" y1="161.9297" y2="182.418"/><line style="stroke:#000000;stroke-width:1.0;" x1="709" x2="1085" y1="182.418" y2="182.418"/><text fill="#000000" font-family="sans-serif" font-size="14" font-weight="bold" lengthAdjust="spacing" textLength="43" x="714" y="197.9531">intent</text><text fill="#000000" font-family="sans-serif" font-size="14" lengthAdjust="spacing" textLength="38" x="839" y="197.9531">order</text><line style="stroke:#000000;stroke-width:1.0;" x1="834" x2="834" y1="182.418" y2="202.9063"/><line style="stroke:#000000;stroke-width:1.0;" x1="709" x2="1085" y1="202.9063" y2="202.9063"/><text fill="#000000" font-family="sans-serif" font-size="14" font-weight="bold" lengthAdjust="spacing" textLength="115" x="714" y="218.4414">executionPeriod</text><text fill="#000000" font-family="sans-serif" font-size="14" lengthAdjust="spacing" textLength="12" x="839" y="218.4414">   </text><line style="stroke:#000000;stroke-width:1.0;" x1="834" x2="834" y1="202.9063" y2="223.3945"/><line style="stroke:#000000;stroke-width:1.0;" x1="709" x2="1085" y1="223.3945" y2="223.3945"/><text fill="#000000" font-family="sans-serif" font-size="14" font-weight="bold" lengthAdjust="spacing" textLength="91" x="714" y="238.9297">lastModified</text><text fill="#000000" font-family="sans-serif" font-size="14" lengthAdjust="spacing" textLength="88" x="839" y="238.9297">2022-07-30</text><line style="stroke:#000000;stroke-width:1.0;" x1="834" x2="834" y1="223.3945" y2="243.8828"/><line style="stroke:#000000;stroke-width:1.0;" x1="709" x2="1085" y1="243.8828" y2="243.8828"/><text fill="#000000" font-family="sans-serif" font-size="14" font-weight="bold" lengthAdjust="spacing" textLength="68" x="714" y="259.418">requester</text><text fill="#000000" font-family="sans-serif" font-size="14" lengthAdjust="spacing" textLength="12" x="839" y="259.418">   </text><line style="stroke:#000000;stroke-width:1.0;" x1="834" x2="834" y1="243.8828" y2="264.3711"/><line style="stroke:#000000;stroke-width:1.0;" x1="709" x2="1085" y1="264.3711" y2="264.3711"/><text fill="#000000" font-family="sans-serif" font-size="14" font-weight="bold" lengthAdjust="spacing" textLength="44" x="714" y="279.9063">owner</text><text fill="#000000" font-family="sans-serif" font-size="14" lengthAdjust="spacing" textLength="12" x="839" y="279.9063">   </text><line style="stroke:#000000;stroke-width:1.0;" x1="834" x2="834" y1="264.3711" y2="284.8594"/><line style="stroke:#000000;stroke-width:1.0;" x1="709" x2="1085" y1="284.8594" y2="284.8594"/><text fill="#000000" font-family="sans-serif" font-size="14" font-weight="bold" lengthAdjust="spacing" textLength="32" x="714" y="300.3945">note</text><text fill="#000000" font-family="sans-serif" font-size="14" lengthAdjust="spacing" textLength="12" x="839" y="300.3945">   </text><line style="stroke:#000000;stroke-width:1.0;" x1="834" x2="834" y1="284.8594" y2="305.3477"/><rect fill="none" height="266.3477" rx="5" ry="5" style="stroke:#000000;stroke-width:1.5;" width="376" x="709" y="39"/><rect fill="#F1F1F1" height="20.4883" rx="5" ry="5" style="stroke:#F1F1F1;stroke-width:1.5;" width="80" x="1259.5" y="25"/><text fill="#000000" font-family="sans-serif" font-size="14" font-weight="bold" lengthAdjust="spacing" textLength="48" x="1264.5" y="40.5352">profile</text><text fill="#000000" font-family="sans-serif" font-size="14" lengthAdjust="spacing" textLength="12" x="1322.5" y="40.5352">   </text><line style="stroke:#000000;stroke-width:1.0;" x1="1317.5" x2="1317.5" y1="25" y2="45.4883"/><rect fill="none" height="20.4883" rx="5" ry="5" style="stroke:#000000;stroke-width:1.5;" width="80" x="1259.5" y="25"/><rect fill="#F1F1F1" height="20.4883" rx="5" ry="5" style="stroke:#F1F1F1;stroke-width:1.5;" width="580" x="1519.5" y="10"/><text fill="#000000" font-family="sans-serif" font-size="14" lengthAdjust="spacing" textLength="570" x="1524.5" y="25.5352">http://openhie.org/fhir/hiv-program-monitoring/StructureDefinition/hiv-lab-task</text><rect fill="none" height="20.4883" rx="5" ry="5" style="stroke:#000000;stroke-width:1.5;" width="580" x="1519.5" y="10"/><rect fill="#F1F1F1" height="20.4883" rx="5" ry="5" style="stroke:#F1F1F1;stroke-width:1.5;" width="22" x="1287.5" y="73"/><text fill="#000000" font-family="sans-serif" font-size="14" lengthAdjust="spacing" textLength="12" x="1292.5" y="88.5352">   </text><rect fill="none" height="20.4883" rx="5" ry="5" style="stroke:#000000;stroke-width:1.5;" width="22" x="1287.5" y="73"/><rect fill="#F1F1F1" height="61.4648" rx="5" ry="5" style="stroke:#F1F1F1;stroke-width:1.5;" width="591" x="1514" y="48.5"/><text fill="#000000" font-family="sans-serif" font-size="14" font-weight="bold" lengthAdjust="spacing" textLength="31" x="1519" y="64.0352">type</text><text fill="#000000" font-family="sans-serif" font-size="14" lengthAdjust="spacing" textLength="12" x="1581" y="64.0352">   </text><line style="stroke:#000000;stroke-width:1.0;" x1="1576" x2="1576" y1="48.5" y2="68.9883"/><line style="stroke:#000000;stroke-width:1.0;" x1="1514" x2="2105" y1="68.9883" y2="68.9883"/><text fill="#000000" font-family="sans-serif" font-size="14" font-weight="bold" lengthAdjust="spacing" textLength="52" x="1519" y="84.5234">system</text><text fill="#000000" font-family="sans-serif" font-size="14" lengthAdjust="spacing" textLength="519" x="1581" y="84.5234">http://openhie.org/fhir/hiv-program-monitoring/lab-integration/order-id</text><line style="stroke:#000000;stroke-width:1.0;" x1="1576" x2="1576" y1="68.9883" y2="89.4766"/><line style="stroke:#000000;stroke-width:1.0;" x1="1514" x2="2105" y1="89.4766" y2="89.4766"/><text fill="#000000" font-family="sans-serif" font-size="14" font-weight="bold" lengthAdjust="spacing" textLength="38" x="1519" y="105.0117">value</text><text fill="#000000" font-family="sans-serif" font-size="14" lengthAdjust="spacing" textLength="92" x="1581" y="105.0117">ORDER12345</text><line style="stroke:#000000;stroke-width:1.0;" x1="1576" x2="1576" y1="89.4766" y2="109.9648"/><rect fill="none" height="61.4648" rx="5" ry="5" style="stroke:#000000;stroke-width:1.5;" width="591" x="1514" y="48.5"/><rect fill="#F1F1F1" height="20.4883" rx="5" ry="5" style="stroke:#F1F1F1;stroke-width:1.5;" width="80" x="2279.5" y="48"/><text fill="#000000" font-family="sans-serif" font-size="14" font-weight="bold" lengthAdjust="spacing" textLength="48" x="2284.5" y="63.5352">coding</text><text fill="#000000" font-family="sans-serif" font-size="14" lengthAdjust="spacing" textLength="12" x="2342.5" y="63.5352">   </text><line style="stroke:#000000;stroke-width:1.0;" x1="2337.5" x2="2337.5" y1="48" y2="68.4883"/><rect fill="none" height="20.4883" rx="5" ry="5" style="stroke:#000000;stroke-width:1.5;" width="80" x="2279.5" y="48"/><rect fill="#F1F1F1" height="20.4883" rx="5" ry="5" style="stroke:#F1F1F1;stroke-width:1.5;" width="22" x="2534" y="48"/><text fill="#000000" font-family="sans-serif" font-size="14" lengthAdjust="spacing" textLength="12" x="2539" y="63.5352">   </text><rect fill="none" height="20.4883" rx="5" ry="5" style="stroke:#000000;stroke-width:1.5;" width="22" x="2534" y="48"/><rect fill="#F1F1F1" height="40.9766" rx="5" ry="5" style="stroke:#F1F1F1;stroke-width:1.5;" width="413" x="2595" y="37.5"/><text fill="#000000" font-family="sans-serif" font-size="14" font-weight="bold" lengthAdjust="spacing" textLength="52" x="2600" y="53.0352">system</text><text fill="#000000" font-family="sans-serif" font-size="14" lengthAdjust="spacing" textLength="341" x="2662" y="53.0352">http://terminology.hl7.org/CodeSystem/v2-0203</text><line style="stroke:#000000;stroke-width:1.0;" x1="2657" x2="2657" y1="37.5" y2="57.9883"/><line style="stroke:#000000;stroke-width:1.0;" x1="2595" x2="3008" y1="57.9883" y2="57.9883"/><text fill="#000000" font-family="sans-serif" font-size="14" font-weight="bold" lengthAdjust="spacing" textLength="33" x="2600" y="73.5234">code</text><text fill="#000000" font-family="sans-serif" font-size="14" lengthAdjust="spacing" textLength="26" x="2662" y="73.5234">FILL</text><line style="stroke:#000000;stroke-width:1.0;" x1="2657" x2="2657" y1="57.9883" y2="78.4766"/><rect fill="none" height="40.9766" rx="5" ry="5" style="stroke:#000000;stroke-width:1.5;" width="413" x="2595" y="37.5"/><rect fill="#F1F1F1" height="20.4883" rx="5" ry="5" style="stroke:#F1F1F1;stroke-width:1.5;" width="22" x="1287.5" y="121"/><text fill="#000000" font-family="sans-serif" font-size="14" lengthAdjust="spacing" textLength="12" x="1292.5" y="136.5352">   </text><rect fill="none" height="20.4883" rx="5" ry="5" style="stroke:#000000;stroke-width:1.5;" width="22" x="1287.5" y="121"/><rect fill="#F1F1F1" height="20.4883" rx="5" ry="5" style="stroke:#F1F1F1;stroke-width:1.5;" width="381" x="1619" y="128"/><text fill="#000000" font-family="sans-serif" font-size="14" font-weight="bold" lengthAdjust="spacing" textLength="66" x="1624" y="143.5352">reference</text><text fill="#000000" font-family="sans-serif" font-size="14" lengthAdjust="spacing" textLength="295" x="1700" y="143.5352">ServiceRequest/HIVServiceRequestExample</text><line style="stroke:#000000;stroke-width:1.0;" x1="1695" x2="1695" y1="128" y2="148.4883"/><rect fill="none" height="20.4883" rx="5" ry="5" style="stroke:#000000;stroke-width:1.5;" width="381" x="1619" y="128"/><rect fill="#F1F1F1" height="20.4883" rx="5" ry="5" style="stroke:#F1F1F1;stroke-width:1.5;" width="80" x="1259.5" y="162"/><text fill="#000000" font-family="sans-serif" font-size="14" font-weight="bold" lengthAdjust="spacing" textLength="48" x="1264.5" y="177.5352">coding</text><text fill="#000000" font-family="sans-serif" font-size="14" lengthAdjust="spacing" textLength="12" x="1322.5" y="177.5352">   </text><line style="stroke:#000000;stroke-width:1.0;" x1="1317.5" x2="1317.5" y1="162" y2="182.4883"/><rect fill="none" height="20.4883" rx="5" ry="5" style="stroke:#000000;stroke-width:1.5;" width="80" x="1259.5" y="162"/><rect fill="#F1F1F1" height="20.4883" rx="5" ry="5" style="stroke:#F1F1F1;stroke-width:1.5;" width="22" x="1797.5" y="166"/><text fill="#000000" font-family="sans-serif" font-size="14" lengthAdjust="spacing" textLength="12" x="1802.5" y="181.5352">   </text><rect fill="none" height="20.4883" rx="5" ry="5" style="stroke:#000000;stroke-width:1.5;" width="22" x="1797.5" y="166"/><rect fill="#F1F1F1" height="40.9766" rx="5" ry="5" style="stroke:#F1F1F1;stroke-width:1.5;" width="230" x="2204.5" y="155.5"/><text fill="#000000" font-family="sans-serif" font-size="14" font-weight="bold" lengthAdjust="spacing" textLength="52" x="2209.5" y="171.0352">system</text><text fill="#000000" font-family="sans-serif" font-size="14" lengthAdjust="spacing" textLength="158" x="2271.5" y="171.0352">http://snomed.info/sct</text><line style="stroke:#000000;stroke-width:1.0;" x1="2266.5" x2="2266.5" y1="155.5" y2="175.9883"/><line style="stroke:#000000;stroke-width:1.0;" x1="2204.5" x2="2434.5" y1="175.9883" y2="175.9883"/><text fill="#000000" font-family="sans-serif" font-size="14" font-weight="bold" lengthAdjust="spacing" textLength="33" x="2209.5" y="191.5234">code</text><text fill="#000000" font-family="sans-serif" font-size="14" lengthAdjust="spacing" textLength="81" x="2271.5" y="191.5234">135839007</text><line style="stroke:#000000;stroke-width:1.0;" x1="2266.5" x2="2266.5" y1="175.9883" y2="196.4766"/><rect fill="none" height="40.9766" rx="5" ry="5" style="stroke:#000000;stroke-width:1.5;" width="230" x="2204.5" y="155.5"/><rect fill="#F1F1F1" height="20.4883" rx="5" ry="5" style="stroke:#F1F1F1;stroke-width:1.5;" width="134" x="1232.5" y="202"/><text fill="#000000" font-family="sans-serif" font-size="14" font-weight="bold" lengthAdjust="spacing" textLength="26" x="1237.5" y="217.5352">end</text><text fill="#000000" font-family="sans-serif" font-size="14" lengthAdjust="spacing" textLength="88" x="1273.5" y="217.5352">2022-07-30</text><line style="stroke:#000000;stroke-width:1.0;" x1="1268.5" x2="1268.5" y1="202" y2="222.4883"/><rect fill="none" height="20.4883" rx="5" ry="5" style="stroke:#000000;stroke-width:1.5;" width="134" x="1232.5" y="202"/><rect fill="#F1F1F1" height="20.4883" rx="5" ry="5" style="stroke:#F1F1F1;stroke-width:1.5;" width="355" x="1122" y="240"/><text fill="#000000" font-family="sans-serif" font-size="14" font-weight="bold" lengthAdjust="spacing" textLength="66" x="1127" y="255.5352">reference</text><text fill="#000000" font-family="sans-serif" font-size="14" lengthAdjust="spacing" textLength="269" x="1203" y="255.5352">Organization/HIVOrganizationExample</text><line style="stroke:#000000;stroke-width:1.0;" x1="1198" x2="1198" y1="240" y2="260.4883"/><rect fill="none" height="20.4883" rx="5" ry="5" style="stroke:#000000;stroke-width:1.5;" width="355" x="1122" y="240"/><rect fill="#F1F1F1" height="20.4883" rx="5" ry="5" style="stroke:#F1F1F1;stroke-width:1.5;" width="355" x="1122" y="278"/><text fill="#000000" font-family="sans-serif" font-size="14" font-weight="bold" lengthAdjust="spacing" textLength="66" x="1127" y="293.5352">reference</text><text fill="#000000" font-family="sans-serif" font-size="14" lengthAdjust="spacing" textLength="269" x="1203" y="293.5352">Organization/HIVOrganizationExample</text><line style="stroke:#000000;stroke-width:1.0;" x1="1198" x2="1198" y1="278" y2="298.4883"/><rect fill="none" height="20.4883" rx="5" ry="5" style="stroke:#000000;stroke-width:1.5;" width="355" x="1122" y="278"/><rect fill="#F1F1F1" height="20.4883" rx="5" ry="5" style="stroke:#F1F1F1;stroke-width:1.5;" width="22" x="1287.5" y="316"/><text fill="#000000" font-family="sans-serif" font-size="14" lengthAdjust="spacing" textLength="12" x="1292.5" y="331.5352">   </text><rect fill="none" height="20.4883" rx="5" ry="5" style="stroke:#000000;stroke-width:1.5;" width="22" x="1287.5" y="316"/><rect fill="#F1F1F1" height="61.4648" rx="5" ry="5" style="stroke:#F1F1F1;stroke-width:1.5;" width="344" x="1637.5" y="295.5"/><text fill="#000000" font-family="sans-serif" font-size="14" font-weight="bold" lengthAdjust="spacing" textLength="117" x="1642.5" y="311.0352">authorReference</text><text fill="#000000" font-family="sans-serif" font-size="14" lengthAdjust="spacing" textLength="12" x="1769.5" y="311.0352">   </text><line style="stroke:#000000;stroke-width:1.0;" x1="1764.5" x2="1764.5" y1="295.5" y2="315.9883"/><line style="stroke:#000000;stroke-width:1.0;" x1="1637.5" x2="1981.5" y1="315.9883" y2="315.9883"/><text fill="#000000" font-family="sans-serif" font-size="14" font-weight="bold" lengthAdjust="spacing" textLength="33" x="1642.5" y="331.5234">time</text><text fill="#000000" font-family="sans-serif" font-size="14" lengthAdjust="spacing" textLength="207" x="1769.5" y="331.5234">2015-02-07T13:28:17-05:00</text><line style="stroke:#000000;stroke-width:1.0;" x1="1764.5" x2="1764.5" y1="315.9883" y2="336.4766"/><line style="stroke:#000000;stroke-width:1.0;" x1="1637.5" x2="1981.5" y1="336.4766" y2="336.4766"/><text fill="#000000" font-family="sans-serif" font-size="14" font-weight="bold" lengthAdjust="spacing" textLength="28" x="1642.5" y="352.0117">text</text><text fill="#000000" font-family="sans-serif" font-size="14" lengthAdjust="spacing" textLength="146" x="1769.5" y="352.0117">additional notes here</text><line style="stroke:#000000;stroke-width:1.0;" x1="1764.5" x2="1764.5" y1="336.4766" y2="356.9648"/><rect fill="none" height="61.4648" rx="5" ry="5" style="stroke:#000000;stroke-width:1.5;" width="344" x="1637.5" y="295.5"/><rect fill="#F1F1F1" height="20.4883" rx="5" ry="5" style="stroke:#F1F1F1;stroke-width:1.5;" width="355" x="2142" y="295"/><text fill="#000000" font-family="sans-serif" font-size="14" font-weight="bold" lengthAdjust="spacing" textLength="66" x="2147" y="310.5352">reference</text><text fill="#000000" font-family="sans-serif" font-size="14" lengthAdjust="spacing" textLength="269" x="2223" y="310.5352">Organization/HIVOrganizationExample</text><line style="stroke:#000000;stroke-width:1.0;" x1="2218" x2="2218" y1="295" y2="315.4883"/><rect fill="none" height="20.4883" rx="5" ry="5" style="stroke:#000000;stroke-width:1.5;" width="355" x="2142" y="295"/><rect fill="#F1F1F1" height="40.9766" rx="5" ry="5" style="stroke:#F1F1F1;stroke-width:1.5;" width="355" x="719.5" y="323.5"/><text fill="#000000" font-family="sans-serif" font-size="14" font-weight="bold" lengthAdjust="spacing" textLength="55" x="724.5" y="339.0352">method</text><text fill="#000000" font-family="sans-serif" font-size="14" lengthAdjust="spacing" textLength="27" x="789.5" y="339.0352">PUT</text><line style="stroke:#000000;stroke-width:1.0;" x1="784.5" x2="784.5" y1="323.5" y2="343.9883"/><line style="stroke:#000000;stroke-width:1.0;" x1="719.5" x2="1074.5" y1="343.9883" y2="343.9883"/><text fill="#000000" font-family="sans-serif" font-size="14" font-weight="bold" lengthAdjust="spacing" textLength="20" x="724.5" y="359.5234">url</text><text fill="#000000" font-family="sans-serif" font-size="14" lengthAdjust="spacing" textLength="280" x="789.5" y="359.5234">Task/HIVLabOrderRejectionTaskExample</text><line style="stroke:#000000;stroke-width:1.0;" x1="784.5" x2="784.5" y1="343.9883" y2="364.4766"/><rect fill="none" height="40.9766" rx="5" ry="5" style="stroke:#000000;stroke-width:1.5;" width="355" x="719.5" y="323.5"/><path d="M1328,35 L1341,35 C1418.8067,35 1503.8523,32.9032 1579.8477,30.2775 " fill="none" style="stroke:#000000;stroke-width:1.0;stroke-dasharray:3.0,3.0;"/><path d="M1579.9566,33.3964 L1582.1868,30.1958 L1579.7387,27.1587 L1587.6448,30.0052 L1579.9566,33.3964 " fill="#000000" style="stroke:#000000;stroke-width:1.0;"/><ellipse cx="1328" cy="35" fill="#000000" rx="3" ry="3" style="stroke:#000000;stroke-width:1.0;"/><path d="M1073,89 L1086,89 C1105.4797,89 1103.944,71.3102 1122,64 C1164.0363,46.981 1215.5303,39.9404 1252.1155,37.033 " fill="none" style="stroke:#000000;stroke-width:1.0;stroke-dasharray:3.0,3.0;"/><path d="M1252.3394,40.0617 L1254.387,36.8651 L1251.8916,34.0043 L1259.6873,36.4732 L1252.3394,40.0617 " fill="#000000" style="stroke:#000000;stroke-width:1.0;"/><ellipse cx="1073" cy="89" fill="#000000" rx="3" ry="3" style="stroke:#000000;stroke-width:1.0;"/><path d="M2545.7751,58 L2558.7751,58 C2565.9698,58 2575.9797,58 2587.8638,58 " fill="none" style="stroke:#000000;stroke-width:1.0;stroke-dasharray:3.0,3.0;"/><path d="M2587.8638,61.0533 L2590.1538,58 L2587.8638,54.9467 L2595.4972,58 L2587.8638,61.0533 " fill="#000000" style="stroke:#000000;stroke-width:1.0;"/><ellipse cx="2545.7751" cy="58" fill="#000000" rx="3" ry="3" style="stroke:#000000;stroke-width:1.0;"/><path d="M2348,58 L2361,58 C2421.5341,58 2493.24,58 2526.634,58 " fill="none" style="stroke:#000000;stroke-width:1.0;stroke-dasharray:3.0,3.0;"/><path d="M2526.634,61.0538 L2528.9243,58 L2526.634,54.9462 L2534.2684,58 L2526.634,61.0538 " fill="#000000" style="stroke:#000000;stroke-width:1.0;"/><ellipse cx="2348" cy="58" fill="#000000" rx="3" ry="3" style="stroke:#000000;stroke-width:1.0;"/><path d="M2093,58 L2106,58 C2163.2108,58 2229.0653,58 2272.2212,58 " fill="none" style="stroke:#000000;stroke-width:1.0;stroke-dasharray:3.0,3.0;"/><path d="M2272.2212,61.0085 L2274.4775,58 L2272.2212,54.9915 L2279.7423,58 L2272.2212,61.0085 " fill="#000000" style="stroke:#000000;stroke-width:1.0;"/><ellipse cx="2093" cy="58" fill="#000000" rx="3" ry="3" style="stroke:#000000;stroke-width:1.0;"/><path d="M1299.0805,83.0072 L1312.0801,82.9051 C1341.3733,82.6749 1420.1707,82.0556 1506.6146,81.3763 " fill="none" style="stroke:#000000;stroke-width:1.0;stroke-dasharray:3.0,3.0;"/><path d="M1506.6384,84.4071 L1508.8877,81.3584 L1506.5908,78.3456 L1514.1915,81.3168 L1506.6384,84.4071 " fill="#000000" style="stroke:#000000;stroke-width:1.0;"/><ellipse cx="1299.0805" cy="83.0072" fill="#000000" rx="3" ry="3" style="stroke:#000000;stroke-width:1.0;"/><path d="M1073,110 L1086,110 C1158.4272,110 1243.6157,94.4457 1280.4695,86.9486 " fill="none" style="stroke:#000000;stroke-width:1.0;stroke-dasharray:3.0,3.0;"/><path d="M1281.0905,89.951 L1282.7213,86.4829 L1279.8485,83.9462 L1287.9754,85.3961 L1281.0905,89.951 " fill="#000000" style="stroke:#000000;stroke-width:1.0;"/><ellipse cx="1073" cy="110" fill="#000000" rx="3" ry="3" style="stroke:#000000;stroke-width:1.0;"/><path d="M1299.0813,130.9874 L1312.0801,131.1661 C1353.1475,131.7309 1491.5127,133.6338 1611.8394,135.2886 " fill="none" style="stroke:#000000;stroke-width:1.0;stroke-dasharray:3.0,3.0;"/><path d="M1611.7979,138.3018 L1614.0993,135.3196 L1611.8808,132.2753 L1619.3725,135.3922 L1611.7979,138.3018 " fill="#000000" style="stroke:#000000;stroke-width:1.0;"/><ellipse cx="1299.0813" cy="130.9874" fill="#000000" rx="3" ry="3" style="stroke:#000000;stroke-width:1.0;"/><path d="M1073,130 L1086,130 C1157.853,130 1243.3389,130.5761 1280.3694,130.8538 " fill="none" style="stroke:#000000;stroke-width:1.0;stroke-dasharray:3.0,3.0;"/><path d="M1280.3464,133.8712 L1282.6325,130.871 L1280.3924,127.8363 L1287.913,130.9113 L1280.3464,133.8712 " fill="#000000" style="stroke:#000000;stroke-width:1.0;"/><ellipse cx="1073" cy="130" fill="#000000" rx="3" ry="3" style="stroke:#000000;stroke-width:1.0;"/><path d="M1809.0801,176 L1822.0801,176 C1872.1556,176 2066.894,176 2197.1985,176 " fill="none" style="stroke:#000000;stroke-width:1.0;stroke-dasharray:3.0,3.0;"/><path d="M2197.1985,179.0835 L2199.5112,176 L2197.1985,172.9165 L2204.9073,176 L2197.1985,179.0835 " fill="#000000" style="stroke:#000000;stroke-width:1.0;"/><ellipse cx="1809.0801" cy="176" fill="#000000" rx="3" ry="3" style="stroke:#000000;stroke-width:1.0;"/><path d="M1328,172 L1341,172 C1515.5749,172 1726.7666,174.8175 1790.1457,175.7232 " fill="none" style="stroke:#000000;stroke-width:1.0;stroke-dasharray:3.0,3.0;"/><path d="M1790.1017,178.7737 L1792.4336,175.7562 L1790.1897,172.6727 L1797.7719,175.8332 L1790.1017,178.7737 " fill="#000000" style="stroke:#000000;stroke-width:1.0;"/><ellipse cx="1328" cy="172" fill="#000000" rx="3" ry="3" style="stroke:#000000;stroke-width:1.0;"/><path d="M1073,171 L1086,171 C1143.2114,171 1209.0658,171.3652 1252.2215,171.6542 " fill="none" style="stroke:#000000;stroke-width:1.0;stroke-dasharray:3.0,3.0;"/><path d="M1252.201,174.6627 L1254.4778,171.6696 L1252.2419,168.6458 L1259.7426,171.7054 L1252.201,174.6627 " fill="#000000" style="stroke:#000000;stroke-width:1.0;"/><ellipse cx="1073" cy="171" fill="#000000" rx="3" ry="3" style="stroke:#000000;stroke-width:1.0;"/><path d="M1073,213 L1086,213 C1132.301,213 1184.2628,212.7608 1225.2725,212.5164 " fill="none" style="stroke:#000000;stroke-width:1.0;stroke-dasharray:3.0,3.0;"/><path d="M1225.2908,215.5268 L1227.5304,212.5027 L1225.2543,209.5059 L1232.7987,212.4707 L1225.2908,215.5268 " fill="#000000" style="stroke:#000000;stroke-width:1.0;"/><ellipse cx="1073" cy="213" fill="#000000" rx="3" ry="3" style="stroke:#000000;stroke-width:1.0;"/><path d="M1073,254 L1086,254 C1095.3389,254 1104.9077,253.9611 1114.5702,253.8909 " fill="none" style="stroke:#000000;stroke-width:1.0;stroke-dasharray:3.0,3.0;"/><path d="M1114.5953,256.9976 L1116.9002,253.8721 L1114.5451,250.7843 L1122.3368,253.8281 L1114.5953,256.9976 " fill="#000000" style="stroke:#000000;stroke-width:1.0;"/><ellipse cx="1073" cy="254" fill="#000000" rx="3" ry="3" style="stroke:#000000;stroke-width:1.0;"/><path d="M1073,274 L1086,274 C1116.8328,274 1150.1221,275.4787 1181.0147,277.475 " fill="none" style="stroke:#000000;stroke-width:1.0;stroke-dasharray:3.0,3.0;"/><path d="M1180.8074,280.5948 L1183.3545,277.6304 L1181.2219,274.3552 L1188.8141,277.9931 L1180.8074,280.5948 " fill="#000000" style="stroke:#000000;stroke-width:1.0;"/><ellipse cx="1073" cy="274" fill="#000000" rx="3" ry="3" style="stroke:#000000;stroke-width:1.0;"/><path d="M1970,305 L1983,305 C2032.243,305 2085.5454,305 2134.8756,305 " fill="none" style="stroke:#000000;stroke-width:1.0;stroke-dasharray:3.0,3.0;"/><path d="M2134.8756,308.0258 L2137.145,305 L2134.8756,301.9742 L2142.4402,305 L2134.8756,308.0258 " fill="#000000" style="stroke:#000000;stroke-width:1.0;"/><ellipse cx="1970" cy="305" fill="#000000" rx="3" ry="3" style="stroke:#000000;stroke-width:1.0;"/><path d="M1299.0801,326 L1312.0801,326 C1355.2488,326 1505.9268,326 1630.1525,326 " fill="none" style="stroke:#000000;stroke-width:1.0;stroke-dasharray:3.0,3.0;"/><path d="M1630.1525,329.1067 L1632.4825,326 L1630.1525,322.8933 L1637.9193,326 L1630.1525,329.1067 " fill="#000000" style="stroke:#000000;stroke-width:1.0;"/><ellipse cx="1299.0801" cy="326" fill="#000000" rx="3" ry="3" style="stroke:#000000;stroke-width:1.0;"/><path d="M1073,295 L1086,295 C1102.8655,295 1105.5205,303.4126 1122,307 C1178.5514,319.3105 1247.0803,323.7775 1279.8028,325.2888 " fill="none" style="stroke:#000000;stroke-width:1.0;stroke-dasharray:3.0,3.0;"/><path d="M1279.6677,328.441 L1282.167,325.3901 L1279.9379,322.1366 L1287.6833,325.6266 L1279.6677,328.441 " fill="#000000" style="stroke:#000000;stroke-width:1.0;"/><ellipse cx="1073" cy="295" fill="#000000" rx="3" ry="3" style="stroke:#000000;stroke-width:1.0;"/><path d="M660,247 L673,247 C682.4463,247 692.006,246.3904 701.5818,245.2811 " fill="none" style="stroke:#000000;stroke-width:1.0;stroke-dasharray:3.0,3.0;"/><path d="M701.9797,248.3536 L703.8862,244.9827 L701.184,242.2086 L709.2631,244.2864 L701.9797,248.3536 " fill="#000000" style="stroke:#000000;stroke-width:1.0;"/><ellipse cx="660" cy="247" fill="#000000" rx="3" ry="3" style="stroke:#000000;stroke-width:1.0;"/><path d="M660,268 L673,268 C698.961,268 686.6362,300.8153 709,314 C712.8205,316.2524 716.7572,318.3508 720.7874,320.3054 " fill="none" style="stroke:#000000;stroke-width:1.0;stroke-dasharray:3.0,3.0;"/><path d="M719.5253,323.0521 L722.8474,321.252 L722.0495,317.5587 L727.6542,323.4606 L719.5253,323.0521 " fill="#000000" style="stroke:#000000;stroke-width:1.0;"/><ellipse cx="660" cy="268" fill="#000000" rx="3" ry="3" style="stroke:#000000;stroke-width:1.0;"/><path d="M261.7852,248 L274.7852,248 C282.0012,248 292.0209,248 303.8251,248 " fill="none" style="stroke:#000000;stroke-width:1.0;stroke-dasharray:3.0,3.0;"/><path d="M303.8251,251.0285 L306.0964,248 L303.8251,244.9715 L311.3963,248 L303.8251,251.0285 " fill="#000000" style="stroke:#000000;stroke-width:1.0;"/><ellipse cx="261.7852" cy="248" fill="#000000" rx="3" ry="3" style="stroke:#000000;stroke-width:1.0;"/><path d="M201,248 L214,248 C223.374,248 233.7885,248 242.4714,248 " fill="none" style="stroke:#000000;stroke-width:1.0;stroke-dasharray:3.0,3.0;"/><path d="M242.4714,251.0815 L244.7825,248 L242.4714,244.9185 L250.1751,248 L242.4714,251.0815 " fill="#000000" style="stroke:#000000;stroke-width:1.0;"/><ellipse cx="201" cy="248" fill="#000000" rx="3" ry="3" style="stroke:#000000;stroke-width:1.0;"/><!--MD5=[95f40c5b346c60b3b709af324af21178]
@startjson lab-rejection-bundle
{
  "resourceType" : "Bundle",
  "id" : "LabRejection",
  "type" : "transaction",
  "entry" : [{
    "fullUrl" : "Task/HIVLabOrderRejectionTaskExample",
    "resource" : {
      "resourceType" : "Task",
      "id" : "HIVLabOrderRejectionTaskExample",
      "meta" : {
        "profile" : ["http://openhie.org/fhir/hiv-program-monitoring/StructureDefinition/hiv-lab-task"]
      },
     
      "identifier" : [{
        "type" : {
          "coding" : [{
            "system" : "http://terminology.hl7.org/CodeSystem/v2-0203",
            "code" : "FILL"
          }]
        },
        "system" : "http://openhie.org/fhir/hiv-program-monitoring/lab-integration/order-id",
        "value" : "ORDER12345"
      }],
      "basedOn" : [{
        "reference" : "ServiceRequest/HIVServiceRequestExample"
      }],
      "status" : "rejected",
      "statusReason" : {
        "coding" : [{
          "system" : "http://snomed.info/sct",
          "code" : "135839007"
        }]
      },
      "intent" : "order",
      "executionPeriod" : {
        "end" : "2022-07-30"
      },
      "lastModified" : "2022-07-30",
      "requester" : {
        "reference" : "Organization/HIVOrganizationExample"
      },
      "owner" : {
        "reference" : "Organization/HIVOrganizationExample"
      },
      "note" : [{
        "authorReference" : {
          "reference" : "Organization/HIVOrganizationExample"
        },
        "time" : "2015-02-07T13:28:17-05:00",
        "text" : "additional notes here"
      }]
    },
    "request" : {
      "method" : "PUT",
      "url" : "Task/HIVLabOrderRejectionTaskExample"
    }
  }]
}
@endjson

PlantUML version 1.2022.7(Mon Aug 22 19:01:30 SAST 2022)
(GPL source distribution)
Java Runtime: Java(TM) SE Runtime Environment
JVM: Java HotSpot(TM) 64-Bit Server VM
Default Encoding: UTF-8
Language: en
Country: GB
--></g></svg>