<?xml version="1.0" encoding="UTF-8" standalone="no"?><svg xmlns="http://www.w3.org/2000/svg" xmlns:xlink="http://www.w3.org/1999/xlink" contentStyleType="text/css" height="376px" preserveAspectRatio="none" style="width:3086px;height:376px;background:#FFFFFF;" version="1.1" viewBox="0 0 3086 376" width="3086px" zoomAndPan="magnify"><defs/><g><rect fill="#F1F1F1" height="81.9531" rx="5" ry="5" style="stroke:#F1F1F1;stroke-width:1.5;" width="225" x="10" y="176"/><text fill="#000000" font-family="sans-serif" font-size="14" font-weight="bold" lengthAdjust="spacing" textLength="96" x="15" y="191.5352">resourceType</text><text fill="#000000" font-family="sans-serif" font-size="14" lengthAdjust="spacing" textLength="47" x="121" y="191.5352">Bundle</text><line style="stroke:#000000;stroke-width:1.0;" x1="116" x2="116" y1="176" y2="196.4883"/><line style="stroke:#000000;stroke-width:1.0;" x1="10" x2="235" y1="196.4883" y2="196.4883"/><text fill="#000000" font-family="sans-serif" font-size="14" font-weight="bold" lengthAdjust="spacing" textLength="14" x="15" y="212.0234">id</text><text fill="#000000" font-family="sans-serif" font-size="14" lengthAdjust="spacing" textLength="109" x="121" y="212.0234">LabCancellation</text><line style="stroke:#000000;stroke-width:1.0;" x1="116" x2="116" y1="196.4883" y2="216.9766"/><line style="stroke:#000000;stroke-width:1.0;" x1="10" x2="235" y1="216.9766" y2="216.9766"/><text fill="#000000" font-family="sans-serif" font-size="14" font-weight="bold" lengthAdjust="spacing" textLength="31" x="15" y="232.5117">type</text><text fill="#000000" font-family="sans-serif" font-size="14" lengthAdjust="spacing" textLength="77" x="121" y="232.5117">transaction</text><line style="stroke:#000000;stroke-width:1.0;" x1="116" x2="116" y1="216.9766" y2="237.4648"/><line style="stroke:#000000;stroke-width:1.0;" x1="10" x2="235" y1="237.4648" y2="237.4648"/><text fill="#000000" font-family="sans-serif" font-size="14" font-weight="bold" lengthAdjust="spacing" textLength="37" x="15" y="253">entry</text><text fill="#000000" font-family="sans-serif" font-size="14" lengthAdjust="spacing" textLength="12" x="121" y="253">   </text><line style="stroke:#000000;stroke-width:1.0;" x1="116" x2="116" y1="237.4648" y2="257.9531"/><rect fill="none" height="81.9531" rx="5" ry="5" style="stroke:#000000;stroke-width:1.5;" width="225" x="10" y="176"/><rect fill="#F1F1F1" height="20.4883" rx="5" ry="5" style="stroke:#F1F1F1;stroke-width:1.5;" width="22" x="272" y="238"/><text fill="#000000" font-family="sans-serif" font-size="14" lengthAdjust="spacing" textLength="12" x="277" y="253.5352">   </text><rect fill="none" height="20.4883" rx="5" ry="5" style="stroke:#000000;stroke-width:1.5;" width="22" x="272" y="238"/><rect fill="#F1F1F1" height="61.4648" rx="5" ry="5" style="stroke:#F1F1F1;stroke-width:1.5;" width="383" x="333" y="217.5"/><text fill="#000000" font-family="sans-serif" font-size="14" font-weight="bold" lengthAdjust="spacing" textLength="46" x="338" y="233.0352">fullUrl</text><text fill="#000000" font-family="sans-serif" font-size="14" lengthAdjust="spacing" textLength="302" x="409" y="233.0352">Task/HIVLabOrderCancellationTaskExample</text><line style="stroke:#000000;stroke-width:1.0;" x1="404" x2="404" y1="217.5" y2="237.9883"/><line style="stroke:#000000;stroke-width:1.0;" x1="333" x2="716" y1="237.9883" y2="237.9883"/><text fill="#000000" font-family="sans-serif" font-size="14" font-weight="bold" lengthAdjust="spacing" textLength="61" x="338" y="253.5234">resource</text><text fill="#000000" font-family="sans-serif" font-size="14" lengthAdjust="spacing" textLength="12" x="409" y="253.5234">   </text><line style="stroke:#000000;stroke-width:1.0;" x1="404" x2="404" y1="237.9883" y2="258.4766"/><line style="stroke:#000000;stroke-width:1.0;" x1="333" x2="716" y1="258.4766" y2="258.4766"/><text fill="#000000" font-family="sans-serif" font-size="14" font-weight="bold" lengthAdjust="spacing" textLength="54" x="338" y="274.0117">request</text><text fill="#000000" font-family="sans-serif" font-size="14" lengthAdjust="spacing" textLength="12" x="409" y="274.0117">   </text><line style="stroke:#000000;stroke-width:1.0;" x1="404" x2="404" y1="258.4766" y2="278.9648"/><rect fill="none" height="61.4648" rx="5" ry="5" style="stroke:#000000;stroke-width:1.5;" width="383" x="333" y="217.5"/><rect fill="#F1F1F1" height="266.3477" rx="5" ry="5" style="stroke:#F1F1F1;stroke-width:1.5;" width="398" x="753" y="39"/><text fill="#000000" font-family="sans-serif" font-size="14" font-weight="bold" lengthAdjust="spacing" textLength="96" x="758" y="54.5352">resourceType</text><text fill="#000000" font-family="sans-serif" font-size="14" lengthAdjust="spacing" textLength="32" x="883" y="54.5352">Task</text><line style="stroke:#000000;stroke-width:1.0;" x1="878" x2="878" y1="39" y2="59.4883"/><line style="stroke:#000000;stroke-width:1.0;" x1="753" x2="1151" y1="59.4883" y2="59.4883"/><text fill="#000000" font-family="sans-serif" font-size="14" font-weight="bold" lengthAdjust="spacing" textLength="14" x="758" y="75.0234">id</text><text fill="#000000" font-family="sans-serif" font-size="14" lengthAdjust="spacing" textLength="263" x="883" y="75.0234">HIVLabOrderCancellationTaskExample</text><line style="stroke:#000000;stroke-width:1.0;" x1="878" x2="878" y1="59.4883" y2="79.9766"/><line style="stroke:#000000;stroke-width:1.0;" x1="753" x2="1151" y1="79.9766" y2="79.9766"/><text fill="#000000" font-family="sans-serif" font-size="14" font-weight="bold" lengthAdjust="spacing" textLength="36" x="758" y="95.5117">meta</text><text fill="#000000" font-family="sans-serif" font-size="14" lengthAdjust="spacing" textLength="12" x="883" y="95.5117">   </text><line style="stroke:#000000;stroke-width:1.0;" x1="878" x2="878" y1="79.9766" y2="100.4648"/><line style="stroke:#000000;stroke-width:1.0;" x1="753" x2="1151" y1="100.4648" y2="100.4648"/><text fill="#000000" font-family="sans-serif" font-size="14" font-weight="bold" lengthAdjust="spacing" textLength="67" x="758" y="116">identifier</text><text fill="#000000" font-family="sans-serif" font-size="14" lengthAdjust="spacing" textLength="12" x="883" y="116">   </text><line style="stroke:#000000;stroke-width:1.0;" x1="878" x2="878" y1="100.4648" y2="120.9531"/><line style="stroke:#000000;stroke-width:1.0;" x1="753" x2="1151" y1="120.9531" y2="120.9531"/><text fill="#000000" font-family="sans-serif" font-size="14" font-weight="bold" lengthAdjust="spacing" textLength="63" x="758" y="136.4883">basedOn</text><text fill="#000000" font-family="sans-serif" font-size="14" lengthAdjust="spacing" textLength="12" x="883" y="136.4883">   </text><line style="stroke:#000000;stroke-width:1.0;" x1="878" x2="878" y1="120.9531" y2="141.4414"/><line style="stroke:#000000;stroke-width:1.0;" x1="753" x2="1151" y1="141.4414" y2="141.4414"/><text fill="#000000" font-family="sans-serif" font-size="14" font-weight="bold" lengthAdjust="spacing" textLength="45" x="758" y="156.9766">status</text><text fill="#000000" font-family="sans-serif" font-size="14" lengthAdjust="spacing" textLength="64" x="883" y="156.9766">cancelled</text><line style="stroke:#000000;stroke-width:1.0;" x1="878" x2="878" y1="141.4414" y2="161.9297"/><line style="stroke:#000000;stroke-width:1.0;" x1="753" x2="1151" y1="161.9297" y2="161.9297"/><text fill="#000000" font-family="sans-serif" font-size="14" font-weight="bold" lengthAdjust="spacing" textLength="97" x="758" y="177.4648">statusReason</text><text fill="#000000" font-family="sans-serif" font-size="14" lengthAdjust="spacing" textLength="12" x="883" y="177.4648">   </text><line style="stroke:#000000;stroke-width:1.0;" x1="878" x2="878" y1="161.9297" y2="182.418"/><line style="stroke:#000000;stroke-width:1.0;" x1="753" x2="1151" y1="182.418" y2="182.418"/><text fill="#000000" font-family="sans-serif" font-size="14" font-weight="bold" lengthAdjust="spacing" textLength="43" x="758" y="197.9531">intent</text><text fill="#000000" font-family="sans-serif" font-size="14" lengthAdjust="spacing" textLength="38" x="883" y="197.9531">order</text><line style="stroke:#000000;stroke-width:1.0;" x1="878" x2="878" y1="182.418" y2="202.9063"/><line style="stroke:#000000;stroke-width:1.0;" x1="753" x2="1151" y1="202.9063" y2="202.9063"/><text fill="#000000" font-family="sans-serif" font-size="14" font-weight="bold" lengthAdjust="spacing" textLength="115" x="758" y="218.4414">executionPeriod</text><text fill="#000000" font-family="sans-serif" font-size="14" lengthAdjust="spacing" textLength="12" x="883" y="218.4414">   </text><line style="stroke:#000000;stroke-width:1.0;" x1="878" x2="878" y1="202.9063" y2="223.3945"/><line style="stroke:#000000;stroke-width:1.0;" x1="753" x2="1151" y1="223.3945" y2="223.3945"/><text fill="#000000" font-family="sans-serif" font-size="14" font-weight="bold" lengthAdjust="spacing" textLength="91" x="758" y="238.9297">lastModified</text><text fill="#000000" font-family="sans-serif" font-size="14" lengthAdjust="spacing" textLength="88" x="883" y="238.9297">2022-07-30</text><line style="stroke:#000000;stroke-width:1.0;" x1="878" x2="878" y1="223.3945" y2="243.8828"/><line style="stroke:#000000;stroke-width:1.0;" x1="753" x2="1151" y1="243.8828" y2="243.8828"/><text fill="#000000" font-family="sans-serif" font-size="14" font-weight="bold" lengthAdjust="spacing" textLength="68" x="758" y="259.418">requester</text><text fill="#000000" font-family="sans-serif" font-size="14" lengthAdjust="spacing" textLength="12" x="883" y="259.418">   </text><line style="stroke:#000000;stroke-width:1.0;" x1="878" x2="878" y1="243.8828" y2="264.3711"/><line style="stroke:#000000;stroke-width:1.0;" x1="753" x2="1151" y1="264.3711" y2="264.3711"/><text fill="#000000" font-family="sans-serif" font-size="14" font-weight="bold" lengthAdjust="spacing" textLength="44" x="758" y="279.9063">owner</text><text fill="#000000" font-family="sans-serif" font-size="14" lengthAdjust="spacing" textLength="12" x="883" y="279.9063">   </text><line style="stroke:#000000;stroke-width:1.0;" x1="878" x2="878" y1="264.3711" y2="284.8594"/><line style="stroke:#000000;stroke-width:1.0;" x1="753" x2="1151" y1="284.8594" y2="284.8594"/><text fill="#000000" font-family="sans-serif" font-size="14" font-weight="bold" lengthAdjust="spacing" textLength="32" x="758" y="300.3945">note</text><text fill="#000000" font-family="sans-serif" font-size="14" lengthAdjust="spacing" textLength="12" x="883" y="300.3945">   </text><line style="stroke:#000000;stroke-width:1.0;" x1="878" x2="878" y1="284.8594" y2="305.3477"/><rect fill="none" height="266.3477" rx="5" ry="5" style="stroke:#000000;stroke-width:1.5;" width="398" x="753" y="39"/><rect fill="#F1F1F1" height="20.4883" rx="5" ry="5" style="stroke:#F1F1F1;stroke-width:1.5;" width="80" x="1325.5" y="25"/><text fill="#000000" font-family="sans-serif" font-size="14" font-weight="bold" lengthAdjust="spacing" textLength="48" x="1330.5" y="40.5352">profile</text><text fill="#000000" font-family="sans-serif" font-size="14" lengthAdjust="spacing" textLength="12" x="1388.5" y="40.5352">   </text><line style="stroke:#000000;stroke-width:1.0;" x1="1383.5" x2="1383.5" y1="25" y2="45.4883"/><rect fill="none" height="20.4883" rx="5" ry="5" style="stroke:#000000;stroke-width:1.5;" width="80" x="1325.5" y="25"/><rect fill="#F1F1F1" height="20.4883" rx="5" ry="5" style="stroke:#F1F1F1;stroke-width:1.5;" width="580" x="1585.5" y="10"/><text fill="#000000" font-family="sans-serif" font-size="14" lengthAdjust="spacing" textLength="570" x="1590.5" y="25.5352">http://openhie.org/fhir/hiv-program-monitoring/StructureDefinition/hiv-lab-task</text><rect fill="none" height="20.4883" rx="5" ry="5" style="stroke:#000000;stroke-width:1.5;" width="580" x="1585.5" y="10"/><rect fill="#F1F1F1" height="20.4883" rx="5" ry="5" style="stroke:#F1F1F1;stroke-width:1.5;" width="22" x="1353.5" y="73"/><text fill="#000000" font-family="sans-serif" font-size="14" lengthAdjust="spacing" textLength="12" x="1358.5" y="88.5352">   </text><rect fill="none" height="20.4883" rx="5" ry="5" style="stroke:#000000;stroke-width:1.5;" width="22" x="1353.5" y="73"/><rect fill="#F1F1F1" height="61.4648" rx="5" ry="5" style="stroke:#F1F1F1;stroke-width:1.5;" width="591" x="1580" y="48.5"/><text fill="#000000" font-family="sans-serif" font-size="14" font-weight="bold" lengthAdjust="spacing" textLength="31" x="1585" y="64.0352">type</text><text fill="#000000" font-family="sans-serif" font-size="14" lengthAdjust="spacing" textLength="12" x="1647" y="64.0352">   </text><line style="stroke:#000000;stroke-width:1.0;" x1="1642" x2="1642" y1="48.5" y2="68.9883"/><line style="stroke:#000000;stroke-width:1.0;" x1="1580" x2="2171" y1="68.9883" y2="68.9883"/><text fill="#000000" font-family="sans-serif" font-size="14" font-weight="bold" lengthAdjust="spacing" textLength="52" x="1585" y="84.5234">system</text><text fill="#000000" font-family="sans-serif" font-size="14" lengthAdjust="spacing" textLength="519" x="1647" y="84.5234">http://openhie.org/fhir/hiv-program-monitoring/lab-integration/order-id</text><line style="stroke:#000000;stroke-width:1.0;" x1="1642" x2="1642" y1="68.9883" y2="89.4766"/><line style="stroke:#000000;stroke-width:1.0;" x1="1580" x2="2171" y1="89.4766" y2="89.4766"/><text fill="#000000" font-family="sans-serif" font-size="14" font-weight="bold" lengthAdjust="spacing" textLength="38" x="1585" y="105.0117">value</text><text fill="#000000" font-family="sans-serif" font-size="14" lengthAdjust="spacing" textLength="92" x="1647" y="105.0117">ORDER12345</text><line style="stroke:#000000;stroke-width:1.0;" x1="1642" x2="1642" y1="89.4766" y2="109.9648"/><rect fill="none" height="61.4648" rx="5" ry="5" style="stroke:#000000;stroke-width:1.5;" width="591" x="1580" y="48.5"/><rect fill="#F1F1F1" height="20.4883" rx="5" ry="5" style="stroke:#F1F1F1;stroke-width:1.5;" width="80" x="2345.5" y="48"/><text fill="#000000" font-family="sans-serif" font-size="14" font-weight="bold" lengthAdjust="spacing" textLength="48" x="2350.5" y="63.5352">coding</text><text fill="#000000" font-family="sans-serif" font-size="14" lengthAdjust="spacing" textLength="12" x="2408.5" y="63.5352">   </text><line style="stroke:#000000;stroke-width:1.0;" x1="2403.5" x2="2403.5" y1="48" y2="68.4883"/><rect fill="none" height="20.4883" rx="5" ry="5" style="stroke:#000000;stroke-width:1.5;" width="80" x="2345.5" y="48"/><rect fill="#F1F1F1" height="20.4883" rx="5" ry="5" style="stroke:#F1F1F1;stroke-width:1.5;" width="22" x="2600" y="48"/><text fill="#000000" font-family="sans-serif" font-size="14" lengthAdjust="spacing" textLength="12" x="2605" y="63.5352">   </text><rect fill="none" height="20.4883" rx="5" ry="5" style="stroke:#000000;stroke-width:1.5;" width="22" x="2600" y="48"/><rect fill="#F1F1F1" height="40.9766" rx="5" ry="5" style="stroke:#F1F1F1;stroke-width:1.5;" width="413" x="2661" y="37.5"/><text fill="#000000" font-family="sans-serif" font-size="14" font-weight="bold" lengthAdjust="spacing" textLength="52" x="2666" y="53.0352">system</text><text fill="#000000" font-family="sans-serif" font-size="14" lengthAdjust="spacing" textLength="341" x="2728" y="53.0352">http://terminology.hl7.org/CodeSystem/v2-0203</text><line style="stroke:#000000;stroke-width:1.0;" x1="2723" x2="2723" y1="37.5" y2="57.9883"/><line style="stroke:#000000;stroke-width:1.0;" x1="2661" x2="3074" y1="57.9883" y2="57.9883"/><text fill="#000000" font-family="sans-serif" font-size="14" font-weight="bold" lengthAdjust="spacing" textLength="33" x="2666" y="73.5234">code</text><text fill="#000000" font-family="sans-serif" font-size="14" lengthAdjust="spacing" textLength="26" x="2728" y="73.5234">FILL</text><line style="stroke:#000000;stroke-width:1.0;" x1="2723" x2="2723" y1="57.9883" y2="78.4766"/><rect fill="none" height="40.9766" rx="5" ry="5" style="stroke:#000000;stroke-width:1.5;" width="413" x="2661" y="37.5"/><rect fill="#F1F1F1" height="20.4883" rx="5" ry="5" style="stroke:#F1F1F1;stroke-width:1.5;" width="22" x="1353.5" y="121"/><text fill="#000000" font-family="sans-serif" font-size="14" lengthAdjust="spacing" textLength="12" x="1358.5" y="136.5352">   </text><rect fill="none" height="20.4883" rx="5" ry="5" style="stroke:#000000;stroke-width:1.5;" width="22" x="1353.5" y="121"/><rect fill="#F1F1F1" height="20.4883" rx="5" ry="5" style="stroke:#F1F1F1;stroke-width:1.5;" width="381" x="1685" y="128"/><text fill="#000000" font-family="sans-serif" font-size="14" font-weight="bold" lengthAdjust="spacing" textLength="66" x="1690" y="143.5352">reference</text><text fill="#000000" font-family="sans-serif" font-size="14" lengthAdjust="spacing" textLength="295" x="1766" y="143.5352">ServiceRequest/HIVServiceRequestExample</text><line style="stroke:#000000;stroke-width:1.0;" x1="1761" x2="1761" y1="128" y2="148.4883"/><rect fill="none" height="20.4883" rx="5" ry="5" style="stroke:#000000;stroke-width:1.5;" width="381" x="1685" y="128"/><rect fill="#F1F1F1" height="20.4883" rx="5" ry="5" style="stroke:#F1F1F1;stroke-width:1.5;" width="80" x="1325.5" y="162"/><text fill="#000000" font-family="sans-serif" font-size="14" font-weight="bold" lengthAdjust="spacing" textLength="48" x="1330.5" y="177.5352">coding</text><text fill="#000000" font-family="sans-serif" font-size="14" lengthAdjust="spacing" textLength="12" x="1388.5" y="177.5352">   </text><line style="stroke:#000000;stroke-width:1.0;" x1="1383.5" x2="1383.5" y1="162" y2="182.4883"/><rect fill="none" height="20.4883" rx="5" ry="5" style="stroke:#000000;stroke-width:1.5;" width="80" x="1325.5" y="162"/><rect fill="#F1F1F1" height="20.4883" rx="5" ry="5" style="stroke:#F1F1F1;stroke-width:1.5;" width="22" x="1863.5" y="166"/><text fill="#000000" font-family="sans-serif" font-size="14" lengthAdjust="spacing" textLength="12" x="1868.5" y="181.5352">   </text><rect fill="none" height="20.4883" rx="5" ry="5" style="stroke:#000000;stroke-width:1.5;" width="22" x="1863.5" y="166"/><rect fill="#F1F1F1" height="40.9766" rx="5" ry="5" style="stroke:#F1F1F1;stroke-width:1.5;" width="230" x="2270.5" y="155.5"/><text fill="#000000" font-family="sans-serif" font-size="14" font-weight="bold" lengthAdjust="spacing" textLength="52" x="2275.5" y="171.0352">system</text><text fill="#000000" font-family="sans-serif" font-size="14" lengthAdjust="spacing" textLength="158" x="2337.5" y="171.0352">http://snomed.info/sct</text><line style="stroke:#000000;stroke-width:1.0;" x1="2332.5" x2="2332.5" y1="155.5" y2="175.9883"/><line style="stroke:#000000;stroke-width:1.0;" x1="2270.5" x2="2500.5" y1="175.9883" y2="175.9883"/><text fill="#000000" font-family="sans-serif" font-size="14" font-weight="bold" lengthAdjust="spacing" textLength="33" x="2275.5" y="191.5234">code</text><text fill="#000000" font-family="sans-serif" font-size="14" lengthAdjust="spacing" textLength="81" x="2337.5" y="191.5234">281264009</text><line style="stroke:#000000;stroke-width:1.0;" x1="2332.5" x2="2332.5" y1="175.9883" y2="196.4766"/><rect fill="none" height="40.9766" rx="5" ry="5" style="stroke:#000000;stroke-width:1.5;" width="230" x="2270.5" y="155.5"/><rect fill="#F1F1F1" height="20.4883" rx="5" ry="5" style="stroke:#F1F1F1;stroke-width:1.5;" width="134" x="1298.5" y="202"/><text fill="#000000" font-family="sans-serif" font-size="14" font-weight="bold" lengthAdjust="spacing" textLength="26" x="1303.5" y="217.5352">end</text><text fill="#000000" font-family="sans-serif" font-size="14" lengthAdjust="spacing" textLength="88" x="1339.5" y="217.5352">2022-07-30</text><line style="stroke:#000000;stroke-width:1.0;" x1="1334.5" x2="1334.5" y1="202" y2="222.4883"/><rect fill="none" height="20.4883" rx="5" ry="5" style="stroke:#000000;stroke-width:1.5;" width="134" x="1298.5" y="202"/><rect fill="#F1F1F1" height="20.4883" rx="5" ry="5" style="stroke:#F1F1F1;stroke-width:1.5;" width="355" x="1188" y="240"/><text fill="#000000" font-family="sans-serif" font-size="14" font-weight="bold" lengthAdjust="spacing" textLength="66" x="1193" y="255.5352">reference</text><text fill="#000000" font-family="sans-serif" font-size="14" lengthAdjust="spacing" textLength="269" x="1269" y="255.5352">Organization/HIVOrganizationExample</text><line style="stroke:#000000;stroke-width:1.0;" x1="1264" x2="1264" y1="240" y2="260.4883"/><rect fill="none" height="20.4883" rx="5" ry="5" style="stroke:#000000;stroke-width:1.5;" width="355" x="1188" y="240"/><rect fill="#F1F1F1" height="20.4883" rx="5" ry="5" style="stroke:#F1F1F1;stroke-width:1.5;" width="355" x="1188" y="278"/><text fill="#000000" font-family="sans-serif" font-size="14" font-weight="bold" lengthAdjust="spacing" textLength="66" x="1193" y="293.5352">reference</text><text fill="#000000" font-family="sans-serif" font-size="14" lengthAdjust="spacing" textLength="269" x="1269" y="293.5352">Organization/HIVOrganizationExample</text><line style="stroke:#000000;stroke-width:1.0;" x1="1264" x2="1264" y1="278" y2="298.4883"/><rect fill="none" height="20.4883" rx="5" ry="5" style="stroke:#000000;stroke-width:1.5;" width="355" x="1188" y="278"/><rect fill="#F1F1F1" height="20.4883" rx="5" ry="5" style="stroke:#F1F1F1;stroke-width:1.5;" width="22" x="1353.5" y="316"/><text fill="#000000" font-family="sans-serif" font-size="14" lengthAdjust="spacing" textLength="12" x="1358.5" y="331.5352">   </text><rect fill="none" height="20.4883" rx="5" ry="5" style="stroke:#000000;stroke-width:1.5;" width="22" x="1353.5" y="316"/><rect fill="#F1F1F1" height="61.4648" rx="5" ry="5" style="stroke:#F1F1F1;stroke-width:1.5;" width="344" x="1703.5" y="295.5"/><text fill="#000000" font-family="sans-serif" font-size="14" font-weight="bold" lengthAdjust="spacing" textLength="117" x="1708.5" y="311.0352">authorReference</text><text fill="#000000" font-family="sans-serif" font-size="14" lengthAdjust="spacing" textLength="12" x="1835.5" y="311.0352">   </text><line style="stroke:#000000;stroke-width:1.0;" x1="1830.5" x2="1830.5" y1="295.5" y2="315.9883"/><line style="stroke:#000000;stroke-width:1.0;" x1="1703.5" x2="2047.5" y1="315.9883" y2="315.9883"/><text fill="#000000" font-family="sans-serif" font-size="14" font-weight="bold" lengthAdjust="spacing" textLength="33" x="1708.5" y="331.5234">time</text><text fill="#000000" font-family="sans-serif" font-size="14" lengthAdjust="spacing" textLength="207" x="1835.5" y="331.5234">2015-02-07T13:28:17-05:00</text><line style="stroke:#000000;stroke-width:1.0;" x1="1830.5" x2="1830.5" y1="315.9883" y2="336.4766"/><line style="stroke:#000000;stroke-width:1.0;" x1="1703.5" x2="2047.5" y1="336.4766" y2="336.4766"/><text fill="#000000" font-family="sans-serif" font-size="14" font-weight="bold" lengthAdjust="spacing" textLength="28" x="1708.5" y="352.0117">text</text><text fill="#000000" font-family="sans-serif" font-size="14" lengthAdjust="spacing" textLength="146" x="1835.5" y="352.0117">additional notes here</text><line style="stroke:#000000;stroke-width:1.0;" x1="1830.5" x2="1830.5" y1="336.4766" y2="356.9648"/><rect fill="none" height="61.4648" rx="5" ry="5" style="stroke:#000000;stroke-width:1.5;" width="344" x="1703.5" y="295.5"/><rect fill="#F1F1F1" height="20.4883" rx="5" ry="5" style="stroke:#F1F1F1;stroke-width:1.5;" width="355" x="2208" y="295"/><text fill="#000000" font-family="sans-serif" font-size="14" font-weight="bold" lengthAdjust="spacing" textLength="66" x="2213" y="310.5352">reference</text><text fill="#000000" font-family="sans-serif" font-size="14" lengthAdjust="spacing" textLength="269" x="2289" y="310.5352">Organization/HIVOrganizationExample</text><line style="stroke:#000000;stroke-width:1.0;" x1="2284" x2="2284" y1="295" y2="315.4883"/><rect fill="none" height="20.4883" rx="5" ry="5" style="stroke:#000000;stroke-width:1.5;" width="355" x="2208" y="295"/><rect fill="#F1F1F1" height="40.9766" rx="5" ry="5" style="stroke:#F1F1F1;stroke-width:1.5;" width="377" x="763.5" y="323.5"/><text fill="#000000" font-family="sans-serif" font-size="14" font-weight="bold" lengthAdjust="spacing" textLength="55" x="768.5" y="339.0352">method</text><text fill="#000000" font-family="sans-serif" font-size="14" lengthAdjust="spacing" textLength="27" x="833.5" y="339.0352">PUT</text><line style="stroke:#000000;stroke-width:1.0;" x1="828.5" x2="828.5" y1="323.5" y2="343.9883"/><line style="stroke:#000000;stroke-width:1.0;" x1="763.5" x2="1140.5" y1="343.9883" y2="343.9883"/><text fill="#000000" font-family="sans-serif" font-size="14" font-weight="bold" lengthAdjust="spacing" textLength="20" x="768.5" y="359.5234">url</text><text fill="#000000" font-family="sans-serif" font-size="14" lengthAdjust="spacing" textLength="302" x="833.5" y="359.5234">Task/HIVLabOrderCancellationTaskExample</text><line style="stroke:#000000;stroke-width:1.0;" x1="828.5" x2="828.5" y1="343.9883" y2="364.4766"/><rect fill="none" height="40.9766" rx="5" ry="5" style="stroke:#000000;stroke-width:1.5;" width="377" x="763.5" y="323.5"/><path d="M1394,35 L1407,35 C1484.8067,35 1569.8523,32.9032 1645.8477,30.2775 " fill="none" style="stroke:#000000;stroke-width:1.0;stroke-dasharray:3.0,3.0;"/><path d="M1645.9566,33.3964 L1648.1868,30.1958 L1645.7387,27.1587 L1653.6448,30.0052 L1645.9566,33.3964 " fill="#000000" style="stroke:#000000;stroke-width:1.0;"/><ellipse cx="1394" cy="35" fill="#000000" rx="3" ry="3" style="stroke:#000000;stroke-width:1.0;"/><path d="M1139,89 L1152,89 C1171.4797,89 1169.944,71.3102 1188,64 C1230.0363,46.981 1281.5303,39.9404 1318.1155,37.033 " fill="none" style="stroke:#000000;stroke-width:1.0;stroke-dasharray:3.0,3.0;"/><path d="M1318.3394,40.0617 L1320.387,36.8651 L1317.8916,34.0043 L1325.6873,36.4732 L1318.3394,40.0617 " fill="#000000" style="stroke:#000000;stroke-width:1.0;"/><ellipse cx="1139" cy="89" fill="#000000" rx="3" ry="3" style="stroke:#000000;stroke-width:1.0;"/><path d="M2611.7751,58 L2624.7751,58 C2631.9698,58 2641.9797,58 2653.8638,58 " fill="none" style="stroke:#000000;stroke-width:1.0;stroke-dasharray:3.0,3.0;"/><path d="M2653.8638,61.0533 L2656.1538,58 L2653.8638,54.9467 L2661.4972,58 L2653.8638,61.0533 " fill="#000000" style="stroke:#000000;stroke-width:1.0;"/><ellipse cx="2611.7751" cy="58" fill="#000000" rx="3" ry="3" style="stroke:#000000;stroke-width:1.0;"/><path d="M2414,58 L2427,58 C2487.5341,58 2559.24,58 2592.634,58 " fill="none" style="stroke:#000000;stroke-width:1.0;stroke-dasharray:3.0,3.0;"/><path d="M2592.634,61.0538 L2594.9243,58 L2592.634,54.9462 L2600.2684,58 L2592.634,61.0538 " fill="#000000" style="stroke:#000000;stroke-width:1.0;"/><ellipse cx="2414" cy="58" fill="#000000" rx="3" ry="3" style="stroke:#000000;stroke-width:1.0;"/><path d="M2159,58 L2172,58 C2229.2108,58 2295.0653,58 2338.2212,58 " fill="none" style="stroke:#000000;stroke-width:1.0;stroke-dasharray:3.0,3.0;"/><path d="M2338.2212,61.0085 L2340.4775,58 L2338.2212,54.9915 L2345.7423,58 L2338.2212,61.0085 " fill="#000000" style="stroke:#000000;stroke-width:1.0;"/><ellipse cx="2159" cy="58" fill="#000000" rx="3" ry="3" style="stroke:#000000;stroke-width:1.0;"/><path d="M1365.0805,83.0072 L1378.0801,82.9051 C1407.3733,82.6749 1486.1707,82.0556 1572.6146,81.3763 " fill="none" style="stroke:#000000;stroke-width:1.0;stroke-dasharray:3.0,3.0;"/><path d="M1572.6384,84.4071 L1574.8877,81.3584 L1572.5908,78.3456 L1580.1915,81.3168 L1572.6384,84.4071 " fill="#000000" style="stroke:#000000;stroke-width:1.0;"/><ellipse cx="1365.0805" cy="83.0072" fill="#000000" rx="3" ry="3" style="stroke:#000000;stroke-width:1.0;"/><path d="M1139,110 L1152,110 C1224.4272,110 1309.6157,94.4457 1346.4695,86.9486 " fill="none" style="stroke:#000000;stroke-width:1.0;stroke-dasharray:3.0,3.0;"/><path d="M1347.0905,89.951 L1348.7213,86.4829 L1345.8485,83.9462 L1353.9754,85.3961 L1347.0905,89.951 " fill="#000000" style="stroke:#000000;stroke-width:1.0;"/><ellipse cx="1139" cy="110" fill="#000000" rx="3" ry="3" style="stroke:#000000;stroke-width:1.0;"/><path d="M1365.0813,130.9874 L1378.0801,131.1661 C1419.1475,131.7309 1557.5127,133.6338 1677.8394,135.2886 " fill="none" style="stroke:#000000;stroke-width:1.0;stroke-dasharray:3.0,3.0;"/><path d="M1677.7979,138.3018 L1680.0993,135.3196 L1677.8808,132.2753 L1685.3725,135.3922 L1677.7979,138.3018 " fill="#000000" style="stroke:#000000;stroke-width:1.0;"/><ellipse cx="1365.0813" cy="130.9874" fill="#000000" rx="3" ry="3" style="stroke:#000000;stroke-width:1.0;"/><path d="M1139,130 L1152,130 C1223.853,130 1309.3389,130.5761 1346.3694,130.8538 " fill="none" style="stroke:#000000;stroke-width:1.0;stroke-dasharray:3.0,3.0;"/><path d="M1346.3464,133.8712 L1348.6325,130.871 L1346.3924,127.8363 L1353.913,130.9113 L1346.3464,133.8712 " fill="#000000" style="stroke:#000000;stroke-width:1.0;"/><ellipse cx="1139" cy="130" fill="#000000" rx="3" ry="3" style="stroke:#000000;stroke-width:1.0;"/><path d="M1875.0801,176 L1888.0801,176 C1938.1556,176 2132.894,176 2263.1985,176 " fill="none" style="stroke:#000000;stroke-width:1.0;stroke-dasharray:3.0,3.0;"/><path d="M2263.1985,179.0835 L2265.5112,176 L2263.1985,172.9165 L2270.9073,176 L2263.1985,179.0835 " fill="#000000" style="stroke:#000000;stroke-width:1.0;"/><ellipse cx="1875.0801" cy="176" fill="#000000" rx="3" ry="3" style="stroke:#000000;stroke-width:1.0;"/><path d="M1394,172 L1407,172 C1581.5749,172 1792.7666,174.8175 1856.1457,175.7232 " fill="none" style="stroke:#000000;stroke-width:1.0;stroke-dasharray:3.0,3.0;"/><path d="M1856.1017,178.7737 L1858.4336,175.7562 L1856.1897,172.6727 L1863.7719,175.8332 L1856.1017,178.7737 " fill="#000000" style="stroke:#000000;stroke-width:1.0;"/><ellipse cx="1394" cy="172" fill="#000000" rx="3" ry="3" style="stroke:#000000;stroke-width:1.0;"/><path d="M1139,171 L1152,171 C1209.2114,171 1275.0658,171.3652 1318.2215,171.6542 " fill="none" style="stroke:#000000;stroke-width:1.0;stroke-dasharray:3.0,3.0;"/><path d="M1318.201,174.6627 L1320.4778,171.6696 L1318.2419,168.6458 L1325.7426,171.7054 L1318.201,174.6627 " fill="#000000" style="stroke:#000000;stroke-width:1.0;"/><ellipse cx="1139" cy="171" fill="#000000" rx="3" ry="3" style="stroke:#000000;stroke-width:1.0;"/><path d="M1139,213 L1152,213 C1198.301,213 1250.2628,212.7608 1291.2725,212.5164 " fill="none" style="stroke:#000000;stroke-width:1.0;stroke-dasharray:3.0,3.0;"/><path d="M1291.2908,215.5268 L1293.5304,212.5027 L1291.2543,209.5059 L1298.7987,212.4707 L1291.2908,215.5268 " fill="#000000" style="stroke:#000000;stroke-width:1.0;"/><ellipse cx="1139" cy="213" fill="#000000" rx="3" ry="3" style="stroke:#000000;stroke-width:1.0;"/><path d="M1139,254 L1152,254 C1161.3389,254 1170.9077,253.9611 1180.5702,253.8909 " fill="none" style="stroke:#000000;stroke-width:1.0;stroke-dasharray:3.0,3.0;"/><path d="M1180.5953,256.9976 L1182.9002,253.8721 L1180.5451,250.7843 L1188.3368,253.8281 L1180.5953,256.9976 " fill="#000000" style="stroke:#000000;stroke-width:1.0;"/><ellipse cx="1139" cy="254" fill="#000000" rx="3" ry="3" style="stroke:#000000;stroke-width:1.0;"/><path d="M1139,274 L1152,274 C1182.8328,274 1216.1221,275.4787 1247.0147,277.475 " fill="none" style="stroke:#000000;stroke-width:1.0;stroke-dasharray:3.0,3.0;"/><path d="M1246.8074,280.5948 L1249.3545,277.6304 L1247.2219,274.3552 L1254.8141,277.9931 L1246.8074,280.5948 " fill="#000000" style="stroke:#000000;stroke-width:1.0;"/><ellipse cx="1139" cy="274" fill="#000000" rx="3" ry="3" style="stroke:#000000;stroke-width:1.0;"/><path d="M2036,305 L2049,305 C2098.243,305 2151.5454,305 2200.8756,305 " fill="none" style="stroke:#000000;stroke-width:1.0;stroke-dasharray:3.0,3.0;"/><path d="M2200.8756,308.0258 L2203.145,305 L2200.8756,301.9742 L2208.4402,305 L2200.8756,308.0258 " fill="#000000" style="stroke:#000000;stroke-width:1.0;"/><ellipse cx="2036" cy="305" fill="#000000" rx="3" ry="3" style="stroke:#000000;stroke-width:1.0;"/><path d="M1365.0801,326 L1378.0801,326 C1421.2488,326 1571.9268,326 1696.1525,326 " fill="none" style="stroke:#000000;stroke-width:1.0;stroke-dasharray:3.0,3.0;"/><path d="M1696.1525,329.1067 L1698.4825,326 L1696.1525,322.8933 L1703.9193,326 L1696.1525,329.1067 " fill="#000000" style="stroke:#000000;stroke-width:1.0;"/><ellipse cx="1365.0801" cy="326" fill="#000000" rx="3" ry="3" style="stroke:#000000;stroke-width:1.0;"/><path d="M1139,295 L1152,295 C1168.8655,295 1171.5205,303.4126 1188,307 C1244.5514,319.3105 1313.0803,323.7775 1345.8028,325.2888 " fill="none" style="stroke:#000000;stroke-width:1.0;stroke-dasharray:3.0,3.0;"/><path d="M1345.6677,328.441 L1348.167,325.3901 L1345.9379,322.1366 L1353.6833,325.6266 L1345.6677,328.441 " fill="#000000" style="stroke:#000000;stroke-width:1.0;"/><ellipse cx="1139" cy="295" fill="#000000" rx="3" ry="3" style="stroke:#000000;stroke-width:1.0;"/><path d="M704,247 L717,247 C726.4436,247 736.0038,246.4414 745.5901,245.4205 " fill="none" style="stroke:#000000;stroke-width:1.0;stroke-dasharray:3.0,3.0;"/><path d="M745.9565,248.4973 L747.8977,245.1458 L745.2238,242.3438 L753.2821,244.5046 L745.9565,248.4973 " fill="#000000" style="stroke:#000000;stroke-width:1.0;"/><ellipse cx="704" cy="247" fill="#000000" rx="3" ry="3" style="stroke:#000000;stroke-width:1.0;"/><path d="M704,268 L717,268 C742.961,268 730.5793,300.9123 753,314 C756.8566,316.2512 760.8244,318.3523 764.8825,320.3125 " fill="none" style="stroke:#000000;stroke-width:1.0;stroke-dasharray:3.0,3.0;"/><path d="M763.6155,323.077 L766.9559,321.2628 L766.1496,317.548 L771.7938,323.4801 L763.6155,323.077 " fill="#000000" style="stroke:#000000;stroke-width:1.0;"/><ellipse cx="704" cy="268" fill="#000000" rx="3" ry="3" style="stroke:#000000;stroke-width:1.0;"/><path d="M283.7061,248 L296.7061,248 C303.8896,248 313.8825,248 325.7022,248 " fill="none" style="stroke:#000000;stroke-width:1.0;stroke-dasharray:3.0,3.0;"/><path d="M325.7022,251.0347 L327.9782,248 L325.7022,244.9653 L333.2889,248 L325.7022,251.0347 " fill="#000000" style="stroke:#000000;stroke-width:1.0;"/><ellipse cx="283.7061" cy="248" fill="#000000" rx="3" ry="3" style="stroke:#000000;stroke-width:1.0;"/><path d="M223,248 L236,248 C245.374,248 255.7885,248 264.4714,248 " fill="none" style="stroke:#000000;stroke-width:1.0;stroke-dasharray:3.0,3.0;"/><path d="M264.4714,251.0815 L266.7825,248 L264.4714,244.9185 L272.1751,248 L264.4714,251.0815 " fill="#000000" style="stroke:#000000;stroke-width:1.0;"/><ellipse cx="223" cy="248" fill="#000000" rx="3" ry="3" style="stroke:#000000;stroke-width:1.0;"/><!--MD5=[d5b777c660e87c1fca54dfc774027b27]
@startjson lab-cancellation-bundle
{
  "resourceType" : "Bundle",
  "id" : "LabCancellation",
  "type" : "transaction",
  "entry" : [{
    "fullUrl" : "Task/HIVLabOrderCancellationTaskExample",
    "resource" : {
      "resourceType" : "Task",
      "id" : "HIVLabOrderCancellationTaskExample",
      "meta" : {
        "profile" : ["http://openhie.org/fhir/hiv-program-monitoring/StructureDefinition/hiv-lab-task"]
      },
    
      "identifier" : [{
        "type" : {
          "coding" : [{
            "system" : "http://terminology.hl7.org/CodeSystem/v2-0203",
            "code" : "FILL"
          }]
        },
        "system" : "http://openhie.org/fhir/hiv-program-monitoring/lab-integration/order-id",
        "value" : "ORDER12345"
      }],
      "basedOn" : [{
        "reference" : "ServiceRequest/HIVServiceRequestExample"
      }],
      "status" : "cancelled",
      "statusReason" : {
        "coding" : [{
          "system" : "http://snomed.info/sct",
          "code" : "281264009"
        }]
      },
      "intent" : "order",
      "executionPeriod" : {
        "end" : "2022-07-30"
      },
      "lastModified" : "2022-07-30",
      "requester" : {
        "reference" : "Organization/HIVOrganizationExample"
      },
      "owner" : {
        "reference" : "Organization/HIVOrganizationExample"
      },
      "note" : [{
        "authorReference" : {
          "reference" : "Organization/HIVOrganizationExample"
        },
        "time" : "2015-02-07T13:28:17-05:00",
        "text" : "additional notes here"
      }]
    },
    "request" : {
      "method" : "PUT",
      "url" : "Task/HIVLabOrderCancellationTaskExample"
    }
  }]
}
@endjson

PlantUML version 1.2022.7(Mon Aug 22 19:01:30 SAST 2022)
(GPL source distribution)
Java Runtime: Java(TM) SE Runtime Environment
JVM: Java HotSpot(TM) 64-Bit Server VM
Default Encoding: UTF-8
Language: en
Country: GB
--></g></svg>